<?xml version="1.0" encoding="UTF-8" standalone="no"?>
<!-- Created with Inkscape (http://www.inkscape.org/) -->

<svg
   xmlns:dc="http://purl.org/dc/elements/1.1/"
   xmlns:cc="http://creativecommons.org/ns#"
   xmlns:rdf="http://www.w3.org/1999/02/22-rdf-syntax-ns#"
   xmlns:svg="http://www.w3.org/2000/svg"
   xmlns="http://www.w3.org/2000/svg"
   xmlns:sodipodi="http://sodipodi.sourceforge.net/DTD/sodipodi-0.dtd"
   xmlns:inkscape="http://www.inkscape.org/namespaces/inkscape"
   id="svg2"
   version="1.1"
   inkscape:version="0.48.4 r9939"
   width="690"
   height="1050"
   sodipodi:docname="0.bmp">
  <metadata
     id="metadata8">
    <rdf:RDF>
      <cc:Work
         rdf:about="">
        <dc:format>image/svg+xml</dc:format>
        <dc:type
           rdf:resource="http://purl.org/dc/dcmitype/StillImage" />
        <dc:title></dc:title>
      </cc:Work>
    </rdf:RDF>
  </metadata>
  <defs
     id="defs6" />
  <sodipodi:namedview
     pagecolor="#ffffff"
     bordercolor="#666666"
     borderopacity="1"
     objecttolerance="10"
     gridtolerance="10"
     guidetolerance="10"
     inkscape:pageopacity="0"
     inkscape:pageshadow="2"
     inkscape:window-width="640"
     inkscape:window-height="480"
     id="namedview4"
     showgrid="false"
     inkscape:zoom="0.2247619"
     inkscape:cx="345"
     inkscape:cy="525"
     inkscape:window-x="0"
     inkscape:window-y="27"
     inkscape:window-maximized="0"
     inkscape:current-layer="svg2" />
  <path
     style="fill:#000000"
     d="m 50.5,1010.4972 c -5.059981,-1.7899 -11.013834,-8.0834 -12.412468,-13.12062 -1.552883,-5.59271 -1.520109,-940.278213 0.03317,-945.87328 1.448483,-5.217596 8.165006,-11.934119 13.382602,-13.382602 5.69039,-1.579738 580.303006,-1.579738 585.993396,0 5.2176,1.448483 11.93412,8.165006 13.3826,13.382602 1.58311,5.702526 1.58311,940.29087 0,945.9934 -1.44848,5.2176 -8.165,11.9341 -13.3826,13.3826 -2.88665,0.8014 -84.40271,1.0989 -293.4967,1.0712 -246.979563,-0.033 -290.087498,-0.2461 -293.499996,-1.4533 z m 581,-70.9972 0,-52 -34,0 -34,0 -0.26012,51 c -0.14306,28.05 -0.0424,51.5685 0.22373,52.26333 0.37938,0.99057 7.77662,1.20648 34.26012,1 L 631.5,991.5 l 0,-52 z m -41,40.6234 c -7.48567,-1.96827 -13.97556,-7.62902 -17.09464,-14.91063 -5.75782,-13.44186 -5.45395,-40.21806 0.59831,-52.72035 8.06891,-16.66814 31.47786,-19.37193 42.50847,-4.90983 5.55405,7.28185 6.98786,13.83085 6.98786,31.91741 0,12.44676 -0.39055,17.26219 -1.75862,21.68356 -2.19317,7.08796 -7.08963,13.62767 -12.40479,16.56784 -4.45525,2.4645 -13.94164,3.65908 -18.83659,2.372 z m 12.35143,-14.65184 C 607.99154,961.14644 609.5,955.36733 609.5,940 c 0,-15.36733 -1.50846,-21.14644 -6.64857,-25.47156 -6.18058,-5.20061 -13.96822,-1.97975 -17.52958,7.25 -2.61759,6.78383 -2.61759,29.65929 0,36.44312 2.2886,5.93122 6.68652,9.77844 11.17815,9.77844 2.12074,0 4.44721,-0.92615 6.35143,-2.52844 z M 368.19878,785.50697 c 84.8257,-11.20654 131.31845,-79.5085 139.7714,-205.33652 1.30406,-19.4118 1.3137,-64.23258 0.0179,-83.17045 -3.60248,-52.64915 -13.34548,-93.97127 -29.6584,-125.78751 -28.20494,-55.01008 -76.43356,-82.3075 -141.21597,-79.92829 -17.68698,0.64957 -32.64385,3.20767 -45.91349,7.85268 C 235.56138,318.61312 200.20257,368.36054 186.10404,447 c -10.27917,57.33569 -9.50375,137.62021 1.87419,194.04557 17.26868,85.63871 62.0344,135.03912 130.88255,144.43312 13.24867,1.80772 35.77117,1.82063 49.338,0.0283 z M 335.5,705.3682 c -21.31312,-3.29398 -37.58821,-16.63119 -49.66734,-40.70167 -12.55037,-25.00953 -18.68979,-54.91416 -21.02579,-102.41508 -1.86302,-37.88304 0.57056,-76.13237 6.75079,-106.10407 8.05008,-39.03973 24.69965,-67.26735 45.97244,-77.94146 12.21046,-6.12688 30.72095,-7.58618 43.9699,-3.46643 34.15964,10.62191 53.92353,49.63004 60.67798,119.76051 1.88658,19.58812 1.57543,74.31167 -0.53163,93.5 -7.45558,67.89567 -26.60157,104.87083 -59.57896,115.06018 -6.34683,1.96105 -20.72845,3.21044 -26.56739,2.30802 z M 125.5,109.5 l 0,-52 -34,0 -34,0 -0.260118,51 c -0.143065,28.05 -0.04239,51.5685 0.223732,52.26333 0.37938,0.99057 7.776618,1.20648 34.260118,1 L 125.5,161.5 l 0,-52 z M 82.788197,149.8679 C 77.811641,148.46212 70.663941,142.00297 68.00367,136.50758 61.951412,124.00529 61.647538,97.229091 67.405364,83.787227 69.607311,78.646699 74.540608,73.284342 79.40532,70.74361 c 6.134218,-3.203768 17.526824,-3.068319 23.54798,0.279967 5.67822,3.157577 10.54753,9.551796 12.78808,16.792859 2.63072,8.502031 2.51815,35.366214 -0.18273,43.606694 -2.42675,7.40412 -6.92425,13.39772 -12.27395,16.35689 -4.806482,2.6587 -14.852913,3.68208 -20.496503,2.08788 z M 96.851428,134.47156 C 101.99154,130.14644 103.5,124.36733 103.5,109 103.5,98.334464 103.11748,94.508659 101.67815,90.778438 96.691594,77.8551 84.308406,77.8551 79.321847,90.778438 77.882516,94.508659 77.5,98.334464 77.5,109 c 0,10.66554 0.382516,14.49134 1.821847,18.22156 C 81.610448,133.15278 86.008371,137 90.5,137 c 2.120735,0 4.447212,-0.92615 6.351428,-2.52844 z"
     id="path2987"
     inkscape:connector-curvature="0" />
</svg>
