<?xml version="1.0" encoding="UTF-8" standalone="no"?>
<!-- Created with Inkscape (http://www.inkscape.org/) -->

<svg
   xmlns:dc="http://purl.org/dc/elements/1.1/"
   xmlns:cc="http://creativecommons.org/ns#"
   xmlns:rdf="http://www.w3.org/1999/02/22-rdf-syntax-ns#"
   xmlns:svg="http://www.w3.org/2000/svg"
   xmlns="http://www.w3.org/2000/svg"
   xmlns:sodipodi="http://sodipodi.sourceforge.net/DTD/sodipodi-0.dtd"
   xmlns:inkscape="http://www.inkscape.org/namespaces/inkscape"
   id="svg3081"
   version="1.1"
   inkscape:version="0.48.4 r9939"
   width="690"
   height="1050"
   sodipodi:docname="1.bmp">
  <metadata
     id="metadata3087">
    <rdf:RDF>
      <cc:Work
         rdf:about="">
        <dc:format>image/svg+xml</dc:format>
        <dc:type
           rdf:resource="http://purl.org/dc/dcmitype/StillImage" />
        <dc:title></dc:title>
      </cc:Work>
    </rdf:RDF>
  </metadata>
  <defs
     id="defs3085" />
  <sodipodi:namedview
     pagecolor="#ffffff"
     bordercolor="#666666"
     borderopacity="1"
     objecttolerance="10"
     gridtolerance="10"
     guidetolerance="10"
     inkscape:pageopacity="0"
     inkscape:pageshadow="2"
     inkscape:window-width="640"
     inkscape:window-height="480"
     id="namedview3083"
     showgrid="false"
     inkscape:zoom="0.2247619"
     inkscape:cx="345"
     inkscape:cy="525"
     inkscape:window-x="0"
     inkscape:window-y="27"
     inkscape:window-maximized="0"
     inkscape:current-layer="svg3081" />
  <path
     style="fill:#000000"
     d="m 50.5,1010.4972 c -5.059981,-1.7899 -11.013834,-8.0834 -12.412468,-13.12062 -1.552883,-5.59271 -1.520109,-940.278213 0.03317,-945.87328 1.448483,-5.217596 8.165006,-11.934119 13.382602,-13.382602 5.69039,-1.579738 580.303006,-1.579738 585.993396,0 5.2176,1.448483 11.93412,8.165006 13.3826,13.382602 1.58311,5.702526 1.58311,940.29087 0,945.9934 -1.44848,5.2176 -8.165,11.9341 -13.3826,13.3826 -2.88665,0.8014 -84.40271,1.0989 -293.4967,1.0712 -246.979563,-0.033 -290.087498,-0.2461 -293.499996,-1.4533 z m 581,-70.9972 0,-52 -34,0 -34,0 -0.26012,51 c -0.14306,28.05 -0.0424,51.5685 0.22373,52.26333 0.37938,0.99057 7.77662,1.20648 34.26012,1 L 631.5,991.5 l 0,-52 z m -39.45082,34.97044 c -2.99795,-2.41619 -8.87388,-6.14815 -13.05763,-8.29325 l -7.60682,-3.90018 2.08195,-5.57949 c 1.14508,-3.06872 2.39154,-5.88907 2.76991,-6.26745 0.37838,-0.37837 4.07993,0.92289 8.22568,2.8917 L 592,956.90142 592,934.95071 592,913 l -8.5,0 -8.5,0 0,-6 0,-6 24.5,0 24.5,0 0,6 0,6 -8,0 -8,0 0,33 0,33 -5.25,-0.0682 c -4.66137,-0.0606 -5.86115,-0.5608 -10.70082,-4.46132 z M 505,738 l 0,-39 -47,0 -47,0 0,-198.5 0,-198.5 -31.89857,0 -31.89857,0 -8.44778,8.27832 C 309.63234,338.81689 254.22783,373.71933 204,395.16818 c -7.425,3.17071 -13.5,6.17473 -13.5,6.67559 0,2.58615 30.10788,77.15623 31.15205,77.15623 0.67219,0 10.36297,-3.63642 21.53506,-8.08093 30.06212,-11.95939 52.50757,-23.12115 71.06289,-35.33842 l 2.75,-1.81067 0,132.61501 0,132.61501 -50,0 -50,0 0,39 0,39 144,0 144,0 0,-39 z m -379.5,-628.5 0,-52 -34,0 -34,0 -0.260118,51 c -0.143065,28.05 -0.04239,51.5685 0.223732,52.26333 0.37938,0.99057 7.776618,1.20648 34.260118,1 L 125.5,161.5 l 0,-52 z M 69,142 l 0,-6 8.5,0 8.5,0 0,-21.95071 0,-21.950709 -7.537726,3.57965 c -4.145749,1.968808 -7.847306,3.270071 -8.225681,2.891695 -0.378375,-0.378375 -1.628364,-3.208185 -2.777754,-6.288468 L 65.36904,86.680945 72.297877,83.214589 C 76.108738,81.308093 82.124535,77.554881 85.666315,74.874117 91.357326,70.566605 92.680998,70 97.052958,70 L 102,70 l 0,33 0,33 8,0 8,0 0,6 0,6 -24.5,0 -24.5,0 0,-6 z"
     id="path3091"
     inkscape:connector-curvature="0" />
</svg>
