<?xml version="1.0" encoding="UTF-8" standalone="no"?>
<!-- Created with Inkscape (http://www.inkscape.org/) -->

<svg
   xmlns:dc="http://purl.org/dc/elements/1.1/"
   xmlns:cc="http://creativecommons.org/ns#"
   xmlns:rdf="http://www.w3.org/1999/02/22-rdf-syntax-ns#"
   xmlns:svg="http://www.w3.org/2000/svg"
   xmlns="http://www.w3.org/2000/svg"
   xmlns:sodipodi="http://sodipodi.sourceforge.net/DTD/sodipodi-0.dtd"
   xmlns:inkscape="http://www.inkscape.org/namespaces/inkscape"
   id="svg2"
   version="1.1"
   inkscape:version="0.48.4 r9939"
   width="690"
   height="1050"
   sodipodi:docname="100.bmp">
  <metadata
     id="metadata8">
    <rdf:RDF>
      <cc:Work
         rdf:about="">
        <dc:format>image/svg+xml</dc:format>
        <dc:type
           rdf:resource="http://purl.org/dc/dcmitype/StillImage" />
        <dc:title></dc:title>
      </cc:Work>
    </rdf:RDF>
  </metadata>
  <defs
     id="defs6" />
  <sodipodi:namedview
     pagecolor="#ffffff"
     bordercolor="#666666"
     borderopacity="1"
     objecttolerance="10"
     gridtolerance="10"
     guidetolerance="10"
     inkscape:pageopacity="0"
     inkscape:pageshadow="2"
     inkscape:window-width="640"
     inkscape:window-height="480"
     id="namedview4"
     showgrid="false"
     inkscape:zoom="0.2247619"
     inkscape:cx="345"
     inkscape:cy="525"
     inkscape:window-x="0"
     inkscape:window-y="27"
     inkscape:window-maximized="0"
     inkscape:current-layer="svg2" />
  <path
     style="fill:#000000"
     d="m 50.5,1010.4972 c -5.059981,-1.7899 -11.013834,-8.0834 -12.412468,-13.12062 -1.552883,-5.59271 -1.520109,-940.278213 0.03317,-945.87328 1.448483,-5.217596 8.165006,-11.934119 13.382602,-13.382602 5.69039,-1.579738 580.303006,-1.579738 585.993396,0 5.2176,1.448483 11.93412,8.165006 13.3826,13.382602 1.58311,5.702526 1.58311,940.29087 0,945.9934 -1.44848,5.2176 -8.165,11.9341 -13.3826,13.3826 -2.88665,0.8014 -84.40271,1.0989 -293.4967,1.0712 -246.979563,-0.033 -290.087498,-0.2461 -293.499996,-1.4533 z m 581,-70.9972 0,-52 -34,0 -34,0 -0.26012,51 c -0.14306,28.05 -0.0424,51.5685 0.22373,52.26333 0.37938,0.99057 7.77662,1.20648 34.26012,1 L 631.5,991.5 l 0,-52 z m -38.84104,10.44638 c -4.61483,-3.63003 -5.93211,-14.86325 -2.60043,-22.17549 1.55479,-3.4124 6.22709,-5.40367 9.78511,-4.17028 7.62758,2.64411 8.54843,23.44328 1.21175,27.36975 -2.91784,1.56158 -5.51155,1.24527 -8.39643,-1.02398 z m 7.78434,-4.16889 C 603.8717,940.88277 601.69563,927 597.5,927 c -2.67785,0 -4.5,4.25168 -4.5,10.5 0,6.24832 1.82215,10.5 4.5,10.5 0.76263,0 2.08711,-1.00013 2.9433,-2.22251 z m 14.21566,4.16889 c -4.61483,-3.63003 -5.93211,-14.86325 -2.60043,-22.17549 1.55479,-3.4124 6.22709,-5.40367 9.78511,-4.17028 7.62758,2.64411 8.54843,23.44328 1.21175,27.36975 -2.91784,1.56158 -5.51155,1.24527 -8.39643,-1.02398 z m 7.78434,-4.16889 C 625.8717,940.88277 623.69563,927 619.5,927 c -2.67785,0 -4.5,4.25168 -4.5,10.5 0,6.24832 1.82215,10.5 4.5,10.5 0.76263,0 2.08711,-1.00013 2.9433,-2.22251 z m -48.49802,3.65657 c -0.71479,-0.86126 -2.57745,-2.22673 -4.13924,-3.03436 -2.40641,-1.2444 -2.6781,-1.77025 -1.78085,-3.44678 0.83764,-1.56514 1.45401,-1.76683 2.95106,-0.96563 C 572.017,942.54428 573.1231,943 573.43426,943 573.74542,943 574,939.625 574,935.5 l 0,-7.5 -3,0 c -2.33333,0 -3,-0.44444 -3,-2 0,-1.83333 0.66667,-2 8,-2 7.33333,0 8,0.16667 8,2 0,1.46667 -0.66667,2 -2.5,2 l -2.5,0 0,11.5 c 0,10.58334 -0.14966,11.5 -1.87756,11.5 -1.03265,0 -2.46238,-0.70467 -3.17716,-1.56594 z M 367.5,664.00319 c 26.76636,-8.41428 44.3416,-29.03418 52.59225,-61.70314 9.59976,-38.01084 8.67268,-93.35809 -2.11681,-126.3752 C 412.85027,460.2412 406.72565,449.7342 397,439.9407 387.64298,430.51841 379.97819,425.89428 367,421.84186 360.49072,419.80935 357.45251,419.5 344,419.5 c -13.45251,0 -16.49072,0.30935 -23,2.34186 -12.57393,3.92619 -20.65397,8.75907 -29.5,17.64471 C 271.32192,459.755 262.52736,487.56634 261.29655,535 c -1.39923,53.92437 8.08132,89.9062 29.39479,111.56293 9.66862,9.82435 20.39171,15.57733 35.30866,18.94325 9.77491,2.20565 32.29732,1.38996 41.5,-1.50299 z m -33.1212,-39.77728 c -9.8668,-3.52843 -16.96599,-11.59642 -22.04548,-25.05395 -10.31766,-27.33542 -10.96922,-80.57011 -1.33798,-109.31744 7.06507,-21.08783 17.07736,-30.2899 33.00466,-30.33383 6.22309,-0.0172 8.47458,0.45789 13.22425,2.79026 12.85421,6.31219 21.06599,22.84055 24.93544,50.18905 1.64592,11.63304 1.64592,48.36696 0,60 -2.75428,19.46676 -8.21869,34.58328 -15.61223,43.18905 -7.44176,8.66191 -21.43481,12.37536 -32.16866,8.53686 z M 559.5,664.00319 c 26.76636,-8.41428 44.3416,-29.03418 52.59225,-61.70314 9.59976,-38.01084 8.67268,-93.35809 -2.11681,-126.3752 C 604.85027,460.2412 598.72565,449.7342 589,439.9407 579.64298,430.51841 571.97819,425.89428 559,421.84186 552.49072,419.80935 549.45251,419.5 536,419.5 c -13.45251,0 -16.49072,0.30935 -23,2.34186 -12.57393,3.92619 -20.65397,8.75907 -29.5,17.64471 C 463.32192,459.755 454.52736,487.56634 453.29655,535 c -1.39923,53.92437 8.08132,89.9062 29.39479,111.56293 9.66862,9.82435 20.39171,15.57733 35.30866,18.94325 9.77491,2.20565 32.29732,1.38996 41.5,-1.50299 z m -33.1212,-39.77728 c -9.8668,-3.52843 -16.96599,-11.59642 -22.04548,-25.05395 -10.31766,-27.33542 -10.96922,-80.57011 -1.33798,-109.31744 7.06507,-21.08783 17.07736,-30.2899 33.00466,-30.33383 13.4887,-0.0372 22.49486,6.36673 29.50417,20.97931 7.06978,14.73866 9.9289,32.59211 9.9289,62 0,11.62709 -0.56835,25.01696 -1.27338,30 -2.75428,19.46676 -8.21869,34.58328 -15.61223,43.18905 -7.44176,8.66191 -21.43481,12.37536 -32.16866,8.53686 z M 232,642.5 l 0,-19.5 -23.5,0 -23.5,0 0,-99.5 0,-99.5 -16.11043,0 -16.11043,0 -8.07527,7.59663 c -13.44185,12.64514 -46.935404,33.2232 -64.975514,39.92024 -4.095522,1.52038 -4.678385,2.06977 -4.113474,3.87725 C 77.175809,480.38844 90.20682,513 90.641536,513 c 0.263414,0 5.362159,-2.00003 11.330544,-4.44452 13.00485,-5.32642 25.9592,-11.74061 31.77792,-15.73445 l 4.25,-2.91711 0,66.54804 0,66.54804 -25,0 -25,0 0,19.5 0,19.5 72,0 72,0 0,-19.5 z m -106.5,-533 0,-52 -34,0 -34,0 -0.260118,51 c -0.143065,28.05 -0.04239,51.5685 0.223732,52.26333 0.37938,0.99057 7.776618,1.20648 34.260118,1 L 125.5,161.5 l 0,-52 z m -38.178822,15.31127 c -3.139713,-1.51793 -4.821499,-6.35447 -4.81898,-13.8586 0.0024,-7.20892 1.837725,-11.239166 5.97695,-13.125123 6.4047,-2.918177 11.511087,2.825543 11.517114,12.954573 0.0072,12.11985 -5.0489,17.7161 -12.675084,14.02915 z m 7.122118,-5.03378 C 95.436136,118.36002 96,115.36177 96,111.5 96,102.41736 92.132867,98.116819 88.556704,103.22251 85.128303,108.11723 87.30437,122 91.5,122 c 0.762626,0 2.087109,-1.00013 2.943296,-2.22251 z m 14.877884,5.03378 c -3.13972,-1.51793 -4.8215,-6.35447 -4.81898,-13.8586 0.002,-7.20892 1.83772,-11.239166 5.97695,-13.125123 6.4047,-2.918177 11.51108,2.825543 11.51711,12.954573 0.007,12.11985 -5.0489,17.7161 -12.67508,14.02915 z m 7.12212,-5.03378 C 117.43614,118.36002 118,115.36177 118,111.5 c 0,-9.08264 -3.86713,-13.383181 -7.4433,-8.27749 C 107.1283,108.11723 109.30437,122 113.5,122 c 0.76263,0 2.08711,-1.00013 2.9433,-2.22251 z M 62,123 c 0,-1.55556 0.666667,-2 3,-2 l 3,0 0,-7.5 c 0,-4.125 -0.254584,-7.5 -0.565741,-7.5 -0.311158,0 -1.417264,0.45572 -2.458013,1.01271 -1.497042,0.8012 -2.113413,0.59951 -2.951051,-0.96563 -0.897252,-1.67653 -0.625565,-2.20238 1.780845,-3.44678 1.561794,-0.80763 3.424451,-2.1731 4.139237,-3.034363 C 68.660064,98.704671 70.089789,98 71.122445,98 72.850341,98 73,98.916657 73,109.5 l 0,11.5 2.5,0 c 1.833333,0 2.5,0.53333 2.5,2 0,1.83333 -0.666667,2 -8,2 -7.333333,0 -8,-0.16667 -8,-2 z"
     id="path2987"
     inkscape:connector-curvature="0" />
</svg>
