<?xml version="1.0" encoding="UTF-8" standalone="no"?>
<!-- Created with Inkscape (http://www.inkscape.org/) -->

<svg
   xmlns:dc="http://purl.org/dc/elements/1.1/"
   xmlns:cc="http://creativecommons.org/ns#"
   xmlns:rdf="http://www.w3.org/1999/02/22-rdf-syntax-ns#"
   xmlns:svg="http://www.w3.org/2000/svg"
   xmlns="http://www.w3.org/2000/svg"
   xmlns:sodipodi="http://sodipodi.sourceforge.net/DTD/sodipodi-0.dtd"
   xmlns:inkscape="http://www.inkscape.org/namespaces/inkscape"
   id="svg2"
   version="1.1"
   inkscape:version="0.48.4 r9939"
   width="690"
   height="1050"
   sodipodi:docname="13.bmp">
  <metadata
     id="metadata8">
    <rdf:RDF>
      <cc:Work
         rdf:about="">
        <dc:format>image/svg+xml</dc:format>
        <dc:type
           rdf:resource="http://purl.org/dc/dcmitype/StillImage" />
        <dc:title></dc:title>
      </cc:Work>
    </rdf:RDF>
  </metadata>
  <defs
     id="defs6" />
  <sodipodi:namedview
     pagecolor="#ffffff"
     bordercolor="#666666"
     borderopacity="1"
     objecttolerance="10"
     gridtolerance="10"
     guidetolerance="10"
     inkscape:pageopacity="0"
     inkscape:pageshadow="2"
     inkscape:window-width="640"
     inkscape:window-height="480"
     id="namedview4"
     showgrid="false"
     inkscape:zoom="0.2247619"
     inkscape:cx="345"
     inkscape:cy="525"
     inkscape:window-x="0"
     inkscape:window-y="27"
     inkscape:window-maximized="0"
     inkscape:current-layer="svg2" />
  <path
     style="fill:#000000"
     d="m 50.5,1010.4972 c -5.059981,-1.7899 -11.013834,-8.0834 -12.412468,-13.12062 -1.552883,-5.59271 -1.520109,-940.278213 0.03317,-945.87328 1.448483,-5.217596 8.165006,-11.934119 13.382602,-13.382602 5.69039,-1.579738 580.303006,-1.579738 585.993396,0 5.2176,1.448483 11.93412,8.165006 13.3826,13.382602 1.58311,5.702526 1.58311,940.29087 0,945.9934 -1.44848,5.2176 -8.165,11.9341 -13.3826,13.3826 -2.88665,0.8014 -84.40271,1.0989 -293.4967,1.0712 -246.979563,-0.033 -290.087498,-0.2461 -293.499996,-1.4533 z m 581,-70.9972 0,-52 -34,0 -34,0 -0.26012,51 c -0.14306,28.05 -0.0424,51.5685 0.22373,52.26333 0.37938,0.99057 7.77662,1.20648 34.26012,1 L 631.5,991.5 l 0,-52 z m -26.25,17.00913 c -3.2546,-1.41458 -4.08303,-3.6462 -2.36186,-6.36238 0.6584,-1.03902 1.33617,-1.09707 2.91894,-0.25 2.72243,1.457 7.49047,1.4057 8.99292,-0.0968 3.22256,-3.22256 0.13504,-8.8 -4.87143,-8.8 C 607.2483,941 607,940.70325 607,937.5 c 0,-3.28807 0.19845,-3.5 3.27749,-3.5 6.69757,0 10.06323,-5.57171 5.73291,-9.49059 -1.65865,-1.50106 -3.07253,-1.69944 -8.5,-1.19261 -5.16365,0.48219 -6.5104,0.32236 -6.5104,-0.77264 0,-0.75932 -0.25332,-2.04071 -0.56292,-2.84754 -0.78175,-2.03719 8.21926,-4.1252 14.02795,-3.25414 5.48057,0.82187 9.04943,3.55629 10.54127,8.07662 1.53059,4.63771 0.46535,8.90624 -2.93705,11.76918 l -2.78372,2.34235 2.35723,2.74045 c 2.73337,3.17772 2.92275,5.3397 0.89323,10.19703 -2.39518,5.73247 -10.27979,7.9862 -17.28599,4.94102 z m -27.67481,-1.97205 c -1.60865,-1.31504 -4.5907,-3.1422 -6.62678,-4.06035 -3.52746,-1.59066 -3.65031,-1.80624 -2.60595,-4.57304 1.24308,-3.29332 2.50288,-3.55215 6.7072,-1.37801 L 578,946.05136 578,935.02568 578,924 l -4,0 c -3.90476,0 -4,-0.0833 -4,-3.5 l 0,-3.5 12,0 12,0 0,3.5 c 0,3.41667 -0.0952,3.5 -4,3.5 l -4,0 0,16.5 0,16.5 -2.75,-0.036 c -1.5125,-0.0198 -4.06617,-1.11191 -5.67481,-2.42696 z M 487.5,703.56173 c 39.56326,-7.16115 64.83456,-24.4728 78.41709,-53.71821 5.4786,-11.79632 8.07378,-23.00525 8.77606,-37.905 0.94658,-20.08307 -2.14887,-35.02388 -10.31958,-49.80943 C 558.766,551.98175 543.8172,537.70082 532.858,532.02154 l -8.64201,-4.47847 6.05519,-3.95646 c 15.43973,-10.08832 27.29771,-27.27241 31.33176,-45.4047 2.18618,-9.82646 1.44889,-28.27037 -1.58124,-39.55579 -7.38707,-27.51248 -25.04075,-46.37946 -52.62027,-56.23676 -15.56901,-5.56458 -24.3146,-6.83057 -47.40143,-6.86171 -22.00076,-0.0297 -29.56327,0.99361 -45,6.08896 -8.25107,2.7235 -38.14714,17.03531 -41.80171,20.01125 l -2.30171,1.8743 11.11316,22.74892 C 388.12197,438.76299 393.30916,449 393.53683,449 c 0.22766,0 4.58751,-2.22724 9.68855,-4.94941 16.30962,-8.70365 39.58757,-15.02648 55.38813,-15.04469 13.37171,-0.0154 26.05707,5.106 32.34234,13.05746 5.57606,7.05425 7.51078,13.49916 7.48579,24.93664 -0.0178,8.13203 -0.40113,10.32371 -2.66229,15.22034 -4.88132,10.57064 -14.92018,18.03688 -29.45483,21.90654 -6.0761,1.61768 -12.01429,2.20074 -26.57452,2.60928 l -18.75,0.52611 0,25.71703 0,25.71703 19.25,0.61712 c 21.63758,0.69365 32.1359,2.46879 45.74853,7.73552 10.73307,4.15263 18.50596,11.338 21.80578,20.15756 8.13065,21.73109 -1.07619,48.33954 -20.03804,57.91146 -10.0802,5.08847 -17.22138,6.28595 -37.26627,6.24908 -24.34794,-0.0448 -38.55252,-2.73587 -63.23215,-11.97947 -5.19723,-1.9466 -9.67084,-3.31794 -9.94135,-3.04744 -0.44267,0.44267 -12.28597,50.26147 -12.31458,51.80126 -0.0544,2.92686 37.94901,12.70821 63.61392,16.37301 12.99829,1.85607 46.33698,1.31659 58.87416,-0.9527 z M 323,673 l 0,-26 -31.5,0 -31.5,0 0,-132.5 0,-132.5 -21.75,0.0369 -21.75,0.0369 -6.5,6.55457 c -16.78723,16.92816 -54.60824,41.12006 -84.81694,54.25247 -6.22431,2.70585 -11.5055,5.10829 -11.73597,5.33875 -0.71697,0.71698 19.24993,51.17944 20.40263,51.56367 3.05168,1.01723 44.97455,-17.89287 56.90028,-25.66594 l 6.25,-4.07368 0,88.47819 0,88.47819 -33.5,0 -33.5,0 0,26 0,26 96.5,0 96.5,0 0,-26 z m -197.5,-563.5 0,-52 -34,0 -34,0 -0.260118,51 c -0.143065,28.05 -0.04239,51.5685 0.223732,52.26333 0.37938,0.99057 7.776618,1.20648 34.260118,1 L 125.5,161.5 l 0,-52 z m -27.813139,22.34011 c -2.710866,-0.75973 -3.650351,-1.49287 -3.25,-2.53617 C 94.746588,128.49681 95,127.21516 95,126.45584 c 0,-1.095 1.346746,-1.25483 6.5104,-0.77264 5.42747,0.50683 6.84135,0.30845 8.5,-1.19261 C 114.34072,120.57171 110.97506,115 104.27749,115 101.19845,115 101,114.78807 101,111.5 c 0,-3.20325 0.2483,-3.5 2.92857,-3.5 5.18253,0 8.22626,-5.96676 4.5852,-8.988569 -1.47332,-1.22275 -6.43101,-1.004947 -9.721898,0.427107 -2.61536,1.138092 -3.7411,-4.271277 -1.265598,-6.081409 4.851836,-3.547745 15.112336,-2.364513 18.023476,2.078453 2.8595,4.364144 2.9328,8.891898 0.19548,12.074218 l -2.4597,2.85957 2.82323,2.3756 c 5.20161,4.37687 4.42502,13.89351 -1.44778,17.74151 -3.14201,2.05872 -11.95151,2.76125 -16.974119,1.35363 z M 64,128.5 c 0,-3.41667 0.09524,-3.5 4,-3.5 l 4,0 0,-11.02568 0,-11.02568 -2.95034,1.52568 c -4.20956,2.17685 -5.464153,1.91521 -6.715701,-1.40052 -1.029452,-2.72733 -0.90566,-3.00857 1.82149,-4.138189 1.609303,-0.666595 4.703782,-2.499806 6.87662,-4.073801 C 73.204906,93.287814 76.111579,92 77.491341,92 L 80,92 l 0,16.5 0,16.5 4,0 c 3.904762,0 4,0.0833 4,3.5 l 0,3.5 -12,0 -12,0 0,-3.5 z"
     id="path2987"
     inkscape:connector-curvature="0" />
</svg>
