<?xml version="1.0" encoding="UTF-8" standalone="no"?>
<!-- Created with Inkscape (http://www.inkscape.org/) -->

<svg
   xmlns:dc="http://purl.org/dc/elements/1.1/"
   xmlns:cc="http://creativecommons.org/ns#"
   xmlns:rdf="http://www.w3.org/1999/02/22-rdf-syntax-ns#"
   xmlns:svg="http://www.w3.org/2000/svg"
   xmlns="http://www.w3.org/2000/svg"
   xmlns:sodipodi="http://sodipodi.sourceforge.net/DTD/sodipodi-0.dtd"
   xmlns:inkscape="http://www.inkscape.org/namespaces/inkscape"
   id="svg2"
   version="1.1"
   inkscape:version="0.48.4 r9939"
   width="690"
   height="1050"
   sodipodi:docname="2.bmp">
  <metadata
     id="metadata8">
    <rdf:RDF>
      <cc:Work
         rdf:about="">
        <dc:format>image/svg+xml</dc:format>
        <dc:type
           rdf:resource="http://purl.org/dc/dcmitype/StillImage" />
        <dc:title></dc:title>
      </cc:Work>
    </rdf:RDF>
  </metadata>
  <defs
     id="defs6" />
  <sodipodi:namedview
     pagecolor="#ffffff"
     bordercolor="#666666"
     borderopacity="1"
     objecttolerance="10"
     gridtolerance="10"
     guidetolerance="10"
     inkscape:pageopacity="0"
     inkscape:pageshadow="2"
     inkscape:window-width="2560"
     inkscape:window-height="1381"
     id="namedview4"
     showgrid="false"
     inkscape:zoom="0.89904762"
     inkscape:cx="345.33449"
     inkscape:cy="524.12951"
     inkscape:window-x="0"
     inkscape:window-y="27"
     inkscape:window-maximized="1"
     inkscape:current-layer="svg2" />
  <path
     style="fill:#000000"
     d="m 50.5,1010.4972 c -5.059981,-1.7899 -11.013834,-8.0834 -12.412468,-13.12062 -1.552883,-5.59271 -1.520109,-940.278213 0.03317,-945.87328 1.448483,-5.217596 8.165006,-11.934119 13.382602,-13.382602 5.69039,-1.579738 580.303006,-1.579738 585.993396,0 5.2176,1.448483 11.93412,8.165006 13.3826,13.382602 1.58311,5.702526 1.58311,940.29087 0,945.9934 -1.44848,5.2176 -8.165,11.9341 -13.3826,13.3826 -2.88665,0.8014 -84.40271,1.0989 -293.4967,1.0712 -246.979563,-0.033 -290.087498,-0.2461 -293.499996,-1.4533 z m 581,-70.9972 0,-52 -34,0 -34,0 -0.26012,51 c -0.14306,28.05 -0.0424,51.5685 0.22373,52.26333 0.37938,0.99057 7.77662,1.20648 34.26012,1 L 631.5,991.5 l 0,-52 z m -45.26985,39.9496 c -6.01507,-1.6194 -9.53734,-3.35339 -13.50202,-6.64694 l -2.77186,-2.30266 3.57446,-5 c 1.96595,-2.75 3.88829,-5 4.27187,-5 0.38357,0 2.63699,1.31522 5.00759,2.92272 3.03259,2.05638 5.90979,3.05537 9.70669,3.37024 4.96299,0.41157 5.64096,0.20305 8.4398,-2.5958 2.33834,-2.33833 3.04332,-3.93619 3.04332,-6.89773 0,-4.93472 -1.06165,-6.42429 -14.52099,-20.37388 -12.73604,-13.19995 -16.20126,-19.1453 -17.16329,-29.44749 L 571.71079,901 l 26.14461,0 26.1446,0 0,6 0,6 -17,0 c -13.12846,0 -17,0.29093 -17,1.27749 0,2.1698 2.94937,5.82196 13.55916,16.79015 14.71152,15.20848 18.24219,23.22413 15.05647,34.18262 -2.00486,6.89647 -7.28278,11.97948 -14.73754,14.1933 -6.33545,1.88143 -10.67655,1.88291 -17.64794,0.006 z M 507,738 l 0,-39 -102.11354,0 -102.11355,0 0.69475,-4.75 c 1.57178,-10.7463 9.56771,-25.48257 23.386,-43.09976 5.09332,-6.49356 18.35795,-20.40748 33.98665,-35.65024 69.69165,-67.97068 85.20146,-85.52371 102.93905,-116.5 16.25153,-28.3811 22.12529,-50.81205 20.89798,-79.80599 -1.45967,-34.48318 -12.54705,-61.5669 -34.58501,-84.48267 C 421.44842,304.9265 379.61881,289.809 330,291.30916 277.22634,292.9047 228.95076,312.18403 192.56207,346.19633 l -7.93793,7.41954 23.43104,33.03539 23.43103,33.03539 9.01526,-8.37044 c 20.20829,-18.76289 38.14826,-28.82207 62.35815,-34.96506 8.67017,-2.19996 12.95492,-2.70801 23.14038,-2.7438 14.41971,-0.0507 21.5074,1.46084 32.84518,7.00451 29.93579,14.63728 39.02657,54.81977 19.77045,87.38814 -8.42837,14.25511 -21.27954,28.8841 -50.51217,57.5 -68.18308,66.74459 -78.94781,78.4607 -97.03691,105.61294 -20.27813,30.43802 -31.7049,59.6477 -34.98836,89.43899 -1.26947,11.51812 -1.7426,46.67318 -0.70249,52.19807 l 0.8001,4.25 155.4121,0 155.4121,0 0,-39 z m -381.5,-628.5 0,-52 -34,0 -34,0 -0.260118,51 c -0.143065,28.05 -0.04239,51.5685 0.223732,52.26333 0.37938,0.99057 7.776618,1.20648 34.260118,1 L 125.5,161.5 l 0,-52 z M 66.315721,141.52194 C 67.277755,131.21975 70.742966,125.2744 83.479011,112.07445 96.938346,98.124861 98,96.635292 98,91.700571 c 0,-2.961543 -0.704982,-4.5594 -3.043315,-6.897732 -2.798846,-2.798846 -3.476814,-3.007366 -8.439809,-2.595796 -3.796891,0.314868 -6.6741,1.313857 -9.706685,3.370238 C 74.439586,87.184777 72.186168,88.5 71.802596,88.5 c -0.383572,0 -2.302047,-2.25 -4.263279,-5 l -3.565874,-5 3.263278,-2.73374 c 1.794804,-1.503558 5.635072,-3.638219 8.533931,-4.743692 16.869571,-6.433173 32.882938,-0.901756 36.844978,12.727175 3.18572,10.958491 -0.34495,18.974137 -15.056471,34.182617 C 86.949369,128.90055 84,132.55271 84,134.72251 84,135.70907 87.871537,136 101,136 l 17,0 0,6 0,6 -26.144605,0 -26.144605,0 0.604931,-6.47806 z"
     id="path2987"
     inkscape:connector-curvature="0" />
</svg>
