<?xml version="1.0" encoding="UTF-8" standalone="no"?>
<!-- Created with Inkscape (http://www.inkscape.org/) -->

<svg
   xmlns:dc="http://purl.org/dc/elements/1.1/"
   xmlns:cc="http://creativecommons.org/ns#"
   xmlns:rdf="http://www.w3.org/1999/02/22-rdf-syntax-ns#"
   xmlns:svg="http://www.w3.org/2000/svg"
   xmlns="http://www.w3.org/2000/svg"
   xmlns:sodipodi="http://sodipodi.sourceforge.net/DTD/sodipodi-0.dtd"
   xmlns:inkscape="http://www.inkscape.org/namespaces/inkscape"
   id="svg2"
   version="1.1"
   inkscape:version="0.48.4 r9939"
   width="690"
   height="1050"
   sodipodi:docname="20.bmp">
  <metadata
     id="metadata8">
    <rdf:RDF>
      <cc:Work
         rdf:about="">
        <dc:format>image/svg+xml</dc:format>
        <dc:type
           rdf:resource="http://purl.org/dc/dcmitype/StillImage" />
        <dc:title></dc:title>
      </cc:Work>
    </rdf:RDF>
  </metadata>
  <defs
     id="defs6" />
  <sodipodi:namedview
     pagecolor="#ffffff"
     bordercolor="#666666"
     borderopacity="1"
     objecttolerance="10"
     gridtolerance="10"
     guidetolerance="10"
     inkscape:pageopacity="0"
     inkscape:pageshadow="2"
     inkscape:window-width="640"
     inkscape:window-height="480"
     id="namedview4"
     showgrid="false"
     inkscape:zoom="0.2247619"
     inkscape:cx="345"
     inkscape:cy="525"
     inkscape:window-x="0"
     inkscape:window-y="27"
     inkscape:window-maximized="0"
     inkscape:current-layer="svg2" />
  <path
     style="fill:#000000"
     d="m 50.5,1010.4972 c -5.059981,-1.7899 -11.013834,-8.0834 -12.412468,-13.12062 -1.552883,-5.59271 -1.520109,-940.278213 0.03317,-945.87328 1.448483,-5.217596 8.165006,-11.934119 13.382602,-13.382602 5.69039,-1.579738 580.303006,-1.579738 585.993396,0 5.2176,1.448483 11.93412,8.165006 13.3826,13.382602 1.58311,5.702526 1.58311,940.29087 0,945.9934 -1.44848,5.2176 -8.165,11.9341 -13.3826,13.3826 -2.88665,0.8014 -84.40271,1.0989 -293.4967,1.0712 -246.979563,-0.033 -290.087498,-0.2461 -293.499996,-1.4533 z m 581,-70.9972 0,-52 -34,0 -34,0 -0.26012,51 c -0.14306,28.05 -0.0424,51.5685 0.22373,52.26333 0.37938,0.99057 7.77662,1.20648 34.26012,1 L 631.5,991.5 l 0,-52 z m -58.12663,16.58216 c -5.20751,-2.36474 -5.6288,-3.09207 -3.45798,-5.97 1.69524,-2.24742 1.87178,-2.27358 4.87213,-0.72204 5.94066,3.07204 10.21248,1.62123 10.21248,-3.46839 0,-1.91027 -1.86846,-4.69637 -6.51598,-9.71613 C 571.83247,929.02131 569,924.04166 569,919.53212 L 569,917 l 13,0 13,0 0,3.5 0,3.5 -9,0 c -5.86582,0 -9,0.38216 -9,1.09739 0,0.60357 2.64875,3.64107 5.88611,6.75 6.59461,6.33299 10.10458,11.52402 10.11015,14.95227 0.006,3.774 -2.68405,7.8243 -6.35334,9.5655 -4.45986,2.11634 -8.15961,2.03744 -13.26955,-0.283 z m 33.93386,0.45103 C 601.89966,954.18147 599.55532,948.28057 599.547,937 c -0.0101,-13.75579 3.11116,-19.25888 11.71544,-20.65516 5.35622,-0.8692 10.20527,1.92415 12.86002,7.40814 1.76058,3.63687 2.21087,6.3349 2.21087,13.24702 0,6.91212 -0.45029,9.61015 -2.21087,13.24702 -3.37081,6.96317 -9.76343,9.35297 -16.81523,6.28617 z M 618.24845,947 c 1.12629,-2.25459 1.74844,-5.81291 1.74844,-10 0,-4.18709 -0.62215,-7.74541 -1.74844,-10 -1.49882,-3.0003 -2.24815,-3.5 -5.24845,-3.5 -5.13254,0 -7.20398,4.43003 -6.80076,14.54427 0.38196,9.58115 2.40947,13.21992 7.11232,12.7645 2.50073,-0.24217 3.56556,-1.06368 4.93689,-3.80877 z M 489.6364,704.91775 c 44.28268,-6.15916 73.52945,-37.95168 85.76931,-93.23503 5.0349,-22.74095 6.0968,-35.38176 6.06377,-72.18272 -0.0321,-35.75847 -0.86475,-45.98607 -5.61742,-69 -8.9071,-43.13095 -28.91241,-72.42969 -59.00854,-86.42084 -14.63524,-6.80366 -23.57666,-8.52469 -44.34352,-8.5352 -15.3684,-0.008 -19.29782,0.31897 -26.87699,2.23488 -34.4102,8.69842 -59.12403,33.91705 -72.0871,73.55954 -7.23821,22.13525 -10.41324,44.39867 -11.2181,78.66162 -1.65501,70.45434 10.55235,118.245 37.64544,147.3784 13.05147,14.03435 33.8101,24.7056 53.53675,27.5213 8.77799,1.25293 27.19177,1.26213 36.1364,0.018 z M 462.5,650.65809 c -7.07265,-1.83814 -11.10132,-4.16781 -17.22892,-9.96304 -12.4105,-11.73733 -20.47753,-32.95917 -24.40238,-64.19505 -1.92908,-15.35247 -1.64071,-60.12813 0.4862,-75.49401 4.15929,-30.04889 11.67953,-49.12813 23.93154,-60.71557 6.66398,-6.30252 11.56565,-8.84501 20.07504,-10.41293 5.23022,-0.9637 8.04484,-0.96407 13.26772,-0.002 17.75236,3.27101 29.15335,15.43739 37.32638,39.83226 11.71554,34.96853 11.71687,106.61143 0.003,141.57608 -8.723,26.03639 -21.89642,38.95076 -40.99566,40.18945 -4.49847,0.29175 -9.44853,-0.0322 -12.46256,-0.81547 z M 325,673 l 0,-26 -68.11129,0 -68.11129,0 0.65513,-3.75 c 1.01289,-5.79774 6.14084,-15.55822 12.90456,-24.56235 6.15663,-8.19596 16.67065,-19.06188 49.93254,-51.6038 20.18504,-19.74813 28.64879,-29.37603 38.1063,-43.34767 C 305.10577,501.97573 311,485.05283 311,464.5225 c 0,-52.9859 -40.62102,-89.38953 -99.87166,-89.50269 -25.02182,-0.0478 -52.36625,7.32464 -73.51449,19.8205 -8.58872,5.07481 -27.11385,20.08667 -27.11385,21.97173 0,0.644 6.87332,10.8568 15.27404,22.6951 l 15.27404,21.52419 7.54619,-6.58127 c 30.35635,-26.47471 65.67175,-31.93204 86.72357,-13.40149 8.53493,7.51275 13.08206,22.28753 10.90419,35.43055 -2.47393,14.92969 -11.84925,27.70415 -41.08503,55.98096 -50.38013,48.72759 -61.37478,61.63437 -74.5682,87.53667 C 120.26457,640.2268 117,654.89521 117,680.96432 c 0,9.18629 0.3,17.00235 0.66667,17.36901 0.36666,0.36667 47.16666,0.66667 104,0.66667 L 325,699 l 0,-26 z m -199.5,-563.5 0,-52 -34,0 -34,0 -0.260118,51 c -0.143065,28.05 -0.04239,51.5685 0.223732,52.26333 0.37938,0.99057 7.776618,1.20648 34.260118,1 L 125.5,161.5 l 0,-52 z m -24.43137,21.74845 C 95.510341,128.41624 93.494962,123.27239 93.527006,112 c 0.02254,-7.92737 0.404753,-10.21607 2.308913,-13.825642 5.134361,-9.732823 17.449641,-9.413084 22.286541,0.57862 3.15419,6.515672 3.15419,19.978372 0,26.494042 -3.47042,7.16894 -10.14965,9.51943 -17.05383,6.00143 z M 112.24845,122 c 1.12629,-2.25459 1.74844,-5.81291 1.74844,-10 0,-4.18709 -0.62215,-7.74541 -1.74844,-10 -1.49882,-3.000296 -2.24815,-3.5 -5.24845,-3.5 -5.13254,0 -7.203984,4.43003 -6.80076,14.54427 0.38196,9.58115 2.40947,13.21992 7.11232,12.7645 2.50073,-0.24217 3.56556,-1.06368 4.93689,-3.80877 z M 63,129.46788 c 0,-4.50954 2.832466,-9.48919 9.484016,-16.67348 C 77.131541,107.77464 79,104.98854 79,103.07827 c 0,-5.089618 -4.271822,-6.540426 -10.212478,-3.468393 -3.000353,1.551543 -3.176895,1.525383 -4.872128,-0.722042 -0.967433,-1.282555 -1.513648,-2.728857 -1.213811,-3.214003 0.951466,-1.539505 8.687025,-4.629049 11.647288,-4.65187 6.566825,-0.05062 12.656894,5.332075 12.647391,11.178378 -0.0056,3.42825 -3.515544,8.61928 -10.110147,14.95227 C 73.648752,120.26154 71,123.29904 71,123.90261 71,124.61784 74.134177,125 80,125 l 9,0 0,3.5 0,3.5 -13,0 -13,0 0,-2.53212 z"
     id="path2987"
     inkscape:connector-curvature="0" />
</svg>
