<?xml version="1.0" encoding="UTF-8" standalone="no"?>
<!-- Created with Inkscape (http://www.inkscape.org/) -->

<svg
   xmlns:dc="http://purl.org/dc/elements/1.1/"
   xmlns:cc="http://creativecommons.org/ns#"
   xmlns:rdf="http://www.w3.org/1999/02/22-rdf-syntax-ns#"
   xmlns:svg="http://www.w3.org/2000/svg"
   xmlns="http://www.w3.org/2000/svg"
   xmlns:sodipodi="http://sodipodi.sourceforge.net/DTD/sodipodi-0.dtd"
   xmlns:inkscape="http://www.inkscape.org/namespaces/inkscape"
   id="svg2"
   version="1.1"
   inkscape:version="0.48.4 r9939"
   width="690"
   height="1050"
   sodipodi:docname="3.bmp">
  <metadata
     id="metadata8">
    <rdf:RDF>
      <cc:Work
         rdf:about="">
        <dc:format>image/svg+xml</dc:format>
        <dc:type
           rdf:resource="http://purl.org/dc/dcmitype/StillImage" />
        <dc:title></dc:title>
      </cc:Work>
    </rdf:RDF>
  </metadata>
  <defs
     id="defs6" />
  <sodipodi:namedview
     pagecolor="#ffffff"
     bordercolor="#666666"
     borderopacity="1"
     objecttolerance="10"
     gridtolerance="10"
     guidetolerance="10"
     inkscape:pageopacity="0"
     inkscape:pageshadow="2"
     inkscape:window-width="1279"
     inkscape:window-height="1381"
     id="namedview4"
     showgrid="false"
     inkscape:zoom="0.2247619"
     inkscape:cx="353.89831"
     inkscape:cy="525"
     inkscape:window-x="1280"
     inkscape:window-y="27"
     inkscape:window-maximized="0"
     inkscape:current-layer="svg2" />
  <path
     style="fill:#000000"
     d="m 50.5,1010.4972 c -5.059981,-1.7899 -11.013834,-8.0834 -12.412468,-13.12062 -1.552883,-5.59271 -1.520109,-940.278213 0.03317,-945.87328 1.448483,-5.217596 8.165006,-11.934119 13.382602,-13.382602 5.69039,-1.579738 580.303006,-1.579738 585.993396,0 5.2176,1.448483 11.93412,8.165006 13.3826,13.382602 1.58311,5.702526 1.58311,940.29087 0,945.9934 -1.44848,5.2176 -8.165,11.9341 -13.3826,13.3826 -2.88665,0.8014 -84.40271,1.0989 -293.4967,1.0712 -246.979563,-0.033 -290.087498,-0.2461 -293.499996,-1.4533 z m 581,-70.9972 0,-52 -34,0 -34,0 -0.26012,51 c -0.14306,28.05 -0.0424,51.5685 0.22373,52.26333 0.37938,0.99057 7.77662,1.20648 34.26012,1 L 631.5,991.5 l 0,-52 z m -45.7942,40.59746 C 581.02014,979.11321 572,974.96594 572,973.79582 c 0,-0.47427 1.10819,-3.04921 2.46264,-5.72209 l 2.46264,-4.85978 4.06305,2.01024 c 2.23468,1.10563 6.95151,2.2421 10.48183,2.52548 6.13177,0.4922 6.55541,0.37861 9.47431,-2.54029 C 603.13731,963.01653 604,961.20677 604,958.79943 604,952.06101 598.56611,948 589.54966,948 L 584,948 l 0,-6.5 0,-6.5 5.25,-0.006 c 11.42258,-0.0121 17.75,-4.00111 17.75,-11.1901 0,-5.37308 -2.47678,-9.68776 -6.5343,-11.3831 -4.72105,-1.97258 -14.15083,-1.775 -21.28698,0.44602 l -5.99947,1.86725 -1.53396,-6.08957 c -0.84369,-3.34927 -1.4277,-6.19584 -1.29781,-6.32573 0.12988,-0.12989 2.88137,-0.92515 6.11441,-1.76725 18.21507,-4.74442 34.80353,-1.69006 41.57278,7.65462 7.98397,11.02155 5.28512,27.64148 -5.44085,33.5056 -1.78253,0.97455 -1.67164,1.27669 1.70954,4.65786 9.25767,9.25768 6.35374,25.22587 -5.65609,31.10173 -5.85373,2.86396 -16.18048,4.04588 -22.94147,2.62571 z M 355.5,785.00865 c 34.94142,-4.77632 64.96181,-15.51429 86.70428,-31.01321 10.52581,-7.50322 24.57196,-21.7891 31.45851,-31.99544 15.32393,-22.7111 23.05169,-48.40807 24.0581,-80 1.75119,-54.97118 -20.40897,-94.43258 -66.78664,-118.92934 l -8.93641,-4.72022 7.75108,-4.89861 c 11.33562,-7.164 24.22215,-20.02774 32.29386,-32.23673 12.06631,-18.25108 16.81556,-32.82564 17.66648,-54.2151 1.48904,-37.42955 -10.90161,-71.49174 -34.58911,-95.08634 -28.65688,-28.54448 -71.95918,-42.27274 -128.10714,-40.61423 -27.15344,0.80207 -44.355,3.96517 -66.69504,12.26418 -16.04617,5.96092 -49.61621,22.64429 -57.61556,28.63332 -1.67646,1.25514 -0.65166,3.68714 15.20731,36.08934 l 17.00489,34.74351 5.2927,-3.38164 c 23.39735,-14.94917 56.79781,-25.43025 86.79269,-27.2356 34.61416,-2.08336 58.3268,12.33857 65.08997,39.58746 1.74891,7.04637 1.75776,23.89886 0.0163,31 -4.18982,17.08464 -17.71504,30.68903 -37.69964,37.9203 -14.01702,5.07195 -23.11536,6.27352 -51.65662,6.82202 l -25.75,0.49485 0,38.7411 0,38.7411 26.25,0.56968 c 27.89959,0.60547 39.58878,1.92134 55.45752,6.24293 35.20725,9.58811 50.37983,25.53962 52.92436,55.64144 1.27994,15.14163 -3.26403,34.09461 -11.11761,46.37173 -7.7273,12.07972 -19.94028,21.33955 -34.01427,25.7895 -12.55006,3.96811 -22.49917,5.09956 -44.5,5.06071 -36.90295,-0.0652 -54.62383,-3.48682 -96.31281,-18.59672 -7.59704,-2.7535 -14.01058,-4.80858 -14.25231,-4.56685 C 201.0509,682.61577 183,759.24914 183,760.49531 c 0,1.23283 21.54118,8.56003 38,12.92564 17.91619,4.75216 52.08942,10.86229 72.5,12.9629 7.39628,0.76121 53.9201,-0.27072 62,-1.3752 z M 125.5,109.5 l 0,-52 -34,0 -34,0 -0.260118,51 c -0.143065,28.05 -0.04239,51.5685 0.223732,52.26333 0.37938,0.99057 7.776618,1.20648 34.260118,1 L 125.5,161.5 l 0,-52 z M 77,149.92456 c -9.736528,-1.85277 -13.068689,-3.12825 -12.569224,-4.81124 0.263333,-0.88733 0.987657,-3.69164 1.609608,-6.23182 l 1.13082,-4.61849 6.003492,1.86849 c 7.13977,2.22215 16.56905,2.42024 21.291005,0.44728 C 98.523222,134.88344 101,130.56876 101,125.19568 c 0,-7.18899 -6.327417,-11.17797 -17.75,-11.1901 L 78,114 l 0,-6.5 0,-6.5 5.54966,0 C 92.566109,101 98,96.938993 98,90.200571 c 0,-2.407344 -0.862687,-4.217104 -3.05553,-6.409947 -2.918903,-2.918903 -3.342542,-3.032491 -9.474306,-2.540292 -3.530327,0.283381 -8.247151,1.419846 -10.481832,2.525478 l -4.063057,2.01024 -2.462637,-4.859781 C 67.108187,78.253389 66,75.662981 66,75.169807 c 0,-0.493174 2.8125,-2.171104 6.25,-3.728734 5.328338,-2.414423 7.577193,-2.840092 15.25,-2.886563 7.914465,-0.04793 9.693697,0.286131 14.75133,2.76969 4.26173,2.092727 6.38511,3.905738 8.19834,7 5.03933,8.599575 4.21405,17.945416 -2.14631,24.30578 -3.38118,3.38117 -3.49207,3.68331 -1.70954,4.65786 10.72597,5.86412 13.42482,22.48405 5.44085,33.5056 C 106.19102,148.86036 91.512244,152.6861 77,149.92456 z"
     id="path2987"
     inkscape:connector-curvature="0" />
</svg>
