<?xml version="1.0" encoding="UTF-8" standalone="no"?>
<!-- Created with Inkscape (http://www.inkscape.org/) -->

<svg
   xmlns:dc="http://purl.org/dc/elements/1.1/"
   xmlns:cc="http://creativecommons.org/ns#"
   xmlns:rdf="http://www.w3.org/1999/02/22-rdf-syntax-ns#"
   xmlns:svg="http://www.w3.org/2000/svg"
   xmlns="http://www.w3.org/2000/svg"
   xmlns:sodipodi="http://sodipodi.sourceforge.net/DTD/sodipodi-0.dtd"
   xmlns:inkscape="http://www.inkscape.org/namespaces/inkscape"
   id="svg2"
   version="1.1"
   inkscape:version="0.48.4 r9939"
   width="690"
   height="1050"
   sodipodi:docname="40.bmp">
  <metadata
     id="metadata8">
    <rdf:RDF>
      <cc:Work
         rdf:about="">
        <dc:format>image/svg+xml</dc:format>
        <dc:type
           rdf:resource="http://purl.org/dc/dcmitype/StillImage" />
        <dc:title></dc:title>
      </cc:Work>
    </rdf:RDF>
  </metadata>
  <defs
     id="defs6" />
  <sodipodi:namedview
     pagecolor="#ffffff"
     bordercolor="#666666"
     borderopacity="1"
     objecttolerance="10"
     gridtolerance="10"
     guidetolerance="10"
     inkscape:pageopacity="0"
     inkscape:pageshadow="2"
     inkscape:window-width="640"
     inkscape:window-height="480"
     id="namedview4"
     showgrid="false"
     inkscape:zoom="0.2247619"
     inkscape:cx="345"
     inkscape:cy="525"
     inkscape:window-x="0"
     inkscape:window-y="27"
     inkscape:window-maximized="0"
     inkscape:current-layer="svg2" />
  <path
     style="fill:#000000"
     d="m 50.5,1010.4972 c -5.059981,-1.7899 -11.013834,-8.0834 -12.412468,-13.12062 -1.552883,-5.59271 -1.520109,-940.278213 0.03317,-945.87328 1.448483,-5.217596 8.165006,-11.934119 13.382602,-13.382602 5.69039,-1.579738 580.303006,-1.579738 585.993396,0 5.2176,1.448483 11.93412,8.165006 13.3826,13.382602 1.58311,5.702526 1.58311,940.29087 0,945.9934 -1.44848,5.2176 -8.165,11.9341 -13.3826,13.3826 -2.88665,0.8014 -84.40271,1.0989 -293.4967,1.0712 -246.979563,-0.033 -290.087498,-0.2461 -293.499996,-1.4533 z m 581,-70.9972 0,-52 -34,0 -34,0 -0.26012,51 c -0.14306,28.05 -0.0424,51.5685 0.22373,52.26333 0.37938,0.99057 7.77662,1.20648 34.26012,1 L 631.5,991.5 l 0,-52 z m -24.19277,17.03319 C 601.89966,954.18147 599.55532,948.28057 599.547,937 c -0.0101,-13.75579 3.11116,-19.25888 11.71544,-20.65516 5.35622,-0.8692 10.20527,1.92415 12.86002,7.40814 1.76058,3.63687 2.21087,6.3349 2.21087,13.24702 0,6.91212 -0.45029,9.61015 -2.21087,13.24702 -3.37081,6.96317 -9.76343,9.35297 -16.81523,6.28617 z M 618.24845,947 c 1.12629,-2.25459 1.74844,-5.81291 1.74844,-10 0,-4.18709 -0.62215,-7.74541 -1.74844,-10 -1.49882,-3.0003 -2.24815,-3.5 -5.24845,-3.5 -5.13254,0 -7.20398,4.43003 -6.80076,14.54427 0.38196,9.58115 2.40947,13.21992 7.11232,12.7645 2.50073,-0.24217 3.56556,-1.06368 4.93689,-3.80877 z m -37.1866,5.45127 C 574.41611,945.2415 567.00029,933.00569 567.00013,929.25 L 567,926 l 8.5,0 8.5,0 0,-4.5 0,-4.5 4,0 4,0 0,4.5 c 0,3.83333 0.2963,4.5 2,4.5 1.61905,0 2,0.66667 2,3.5 0,2.83333 -0.38095,3.5 -2,3.5 -1.88889,0 -2,0.66667 -2,12 l 0,12 -3.37264,0 c -2.72138,0 -4.18229,-0.87837 -7.56551,-4.54873 z M 584,940 l 0,-7 -4.5,0 c -2.475,0 -4.5,0.33501 -4.5,0.74446 C 575,934.48695 583.25239,947 583.74206,947 583.88393,947 584,943.85 584,940 z M 489.6364,704.91775 c 44.28268,-6.15916 73.52945,-37.95168 85.76931,-93.23503 5.0349,-22.74095 6.0968,-35.38176 6.06377,-72.18272 -0.0321,-35.75847 -0.86475,-45.98607 -5.61742,-69 -8.9071,-43.13095 -28.91241,-72.42969 -59.00854,-86.42084 -14.63524,-6.80366 -23.57666,-8.52469 -44.34352,-8.5352 -15.3684,-0.008 -19.29782,0.31897 -26.87699,2.23488 -34.4102,8.69842 -59.12403,33.91705 -72.0871,73.55954 -7.23821,22.13525 -10.41324,44.39867 -11.2181,78.66162 -1.65501,70.45434 10.55235,118.245 37.64544,147.3784 13.05147,14.03435 33.8101,24.7056 53.53675,27.5213 8.77799,1.25293 27.19177,1.26213 36.1364,0.018 z M 462.5,650.65809 c -7.07265,-1.83814 -11.10132,-4.16781 -17.22892,-9.96304 -12.4105,-11.73733 -20.47753,-32.95917 -24.40238,-64.19505 -1.92908,-15.35247 -1.64071,-60.12813 0.4862,-75.49401 4.15929,-30.04889 11.67953,-49.12813 23.93154,-60.71557 6.66398,-6.30252 11.56565,-8.84501 20.07504,-10.41293 5.23022,-0.9637 8.04484,-0.96407 13.26772,-0.002 17.75236,3.27101 29.15335,15.43739 37.32638,39.83226 11.71554,34.96853 11.71687,106.61143 0.003,141.57608 -8.723,26.03639 -21.89642,38.95076 -40.99566,40.18945 -4.49847,0.29175 -9.44853,-0.0322 -12.46256,-0.81547 z M 297,661.5 l 0,-37.5 17,0 17,0 0,-26 0,-26 -17,0 -17,0 0,-95 0,-95 -28.27889,0 -28.27889,0 -6.0629,6.25 C 195.78681,428.03342 141.55379,503.81201 109.63551,562.55177 L 102,576.60354 l 0,23.69823 0,23.69823 66,0 66,0 0,37.5 0,37.5 31.5,0 31.5,0 0,-37.5 z M 163,571.34567 c 0,-0.35989 2.8438,-6.09739 6.31956,-12.75 7.6064,-14.5587 22.83014,-39.50156 34.54285,-56.59567 9.07824,-13.24924 28.93319,-40 29.68879,-40 0.24684,0 0.4488,24.75 0.4488,55 l 0,55 -35.5,0 C 178.975,572 163,571.70555 163,571.34567 z M 125.5,109.5 l 0,-52 -34,0 -34,0 -0.260118,51 c -0.143065,28.05 -0.04239,51.5685 0.223732,52.26333 0.37938,0.99057 7.776618,1.20648 34.260118,1 L 125.5,161.5 l 0,-52 z m -24.43137,21.74845 C 95.510341,128.41624 93.494962,123.27239 93.527006,112 c 0.02254,-7.92737 0.404753,-10.21607 2.308913,-13.825642 5.134361,-9.732823 17.449641,-9.413084 22.286541,0.57862 3.15419,6.515672 3.15419,19.978372 0,26.494042 -3.47042,7.16894 -10.14965,9.51943 -17.05383,6.00143 z M 112.24845,122 c 1.12629,-2.25459 1.74844,-5.81291 1.74844,-10 0,-4.18709 -0.62215,-7.74541 -1.74844,-10 -1.49882,-3.000296 -2.24815,-3.5 -5.24845,-3.5 -5.13254,0 -7.203984,4.43003 -6.80076,14.54427 0.38196,9.58115 2.40947,13.21992 7.11232,12.7645 2.50073,-0.24217 3.56556,-1.06368 4.93689,-3.80877 z M 78,127.5 l 0,-4.5 -8.5,0 -8.5,0 1.35e-4,-3.25 c 1.56e-4,-3.75569 7.415978,-15.9915 14.061714,-23.201272 C 78.445069,92.878368 79.905983,92 82.62736,92 L 86,92 l 0,12 c 0,11.33333 0.111111,12 2,12 1.619048,0 2,0.66667 2,3.5 0,2.83333 -0.380952,3.5 -2,3.5 -1.703704,0 -2,0.66667 -2,4.5 l 0,4.5 -4,0 -4,0 0,-4.5 z m 0,-18.66667 c 0,-3.94166 -0.171853,-6.97916 -0.381897,-6.75 C 76.061706,103.78143 69,114.50124 69,115.16578 69,115.6246 71.025,116 73.5,116 l 4.5,0 0,-7.16667 z"
     id="path2987"
     inkscape:connector-curvature="0" />
</svg>
