<?xml version="1.0" encoding="UTF-8" standalone="no"?>
<!-- Created with Inkscape (http://www.inkscape.org/) -->

<svg
   xmlns:dc="http://purl.org/dc/elements/1.1/"
   xmlns:cc="http://creativecommons.org/ns#"
   xmlns:rdf="http://www.w3.org/1999/02/22-rdf-syntax-ns#"
   xmlns:svg="http://www.w3.org/2000/svg"
   xmlns="http://www.w3.org/2000/svg"
   xmlns:sodipodi="http://sodipodi.sourceforge.net/DTD/sodipodi-0.dtd"
   xmlns:inkscape="http://www.inkscape.org/namespaces/inkscape"
   id="svg2"
   version="1.1"
   inkscape:version="0.48.4 r9939"
   width="690"
   height="1050"
   sodipodi:docname="5.bmp">
  <metadata
     id="metadata8">
    <rdf:RDF>
      <cc:Work
         rdf:about="">
        <dc:format>image/svg+xml</dc:format>
        <dc:type
           rdf:resource="http://purl.org/dc/dcmitype/StillImage" />
        <dc:title></dc:title>
      </cc:Work>
    </rdf:RDF>
  </metadata>
  <defs
     id="defs6" />
  <sodipodi:namedview
     pagecolor="#ffffff"
     bordercolor="#666666"
     borderopacity="1"
     objecttolerance="10"
     gridtolerance="10"
     guidetolerance="10"
     inkscape:pageopacity="0"
     inkscape:pageshadow="2"
     inkscape:window-width="640"
     inkscape:window-height="480"
     id="namedview4"
     showgrid="false"
     inkscape:zoom="0.2247619"
     inkscape:cx="345"
     inkscape:cy="525"
     inkscape:window-x="0"
     inkscape:window-y="27"
     inkscape:window-maximized="0"
     inkscape:current-layer="svg2" />
  <path
     style="fill:#000000"
     d="m 50.5,1010.4972 c -5.059981,-1.7899 -11.013834,-8.0834 -12.412468,-13.12062 -1.552883,-5.59271 -1.520109,-940.278213 0.03317,-945.87328 1.448483,-5.217596 8.165006,-11.934119 13.382602,-13.382602 5.69039,-1.579738 580.303006,-1.579738 585.993396,0 5.2176,1.448483 11.93412,8.165006 13.3826,13.382602 1.58311,5.702526 1.58311,940.29087 0,945.9934 -1.44848,5.2176 -8.165,11.9341 -13.3826,13.3826 -2.88665,0.8014 -84.40271,1.0989 -293.4967,1.0712 -246.979563,-0.033 -290.087498,-0.2461 -293.499996,-1.4533 z m 581,-70.9972 0,-52 -34,0 -34,0 -0.26012,51 c -0.14306,28.05 -0.0424,51.5685 0.22373,52.26333 0.37938,0.99057 7.77662,1.20648 34.26012,1 L 631.5,991.5 l 0,-52 z m -53.50342,33.75 c -0.004,-5.92356 -1.62178,-26.3531 -2.52296,-31.85086 l -0.50829,-3.10085 8.79954,-0.5701 C 599.08476,936.73566 606,932.20045 606,923.14578 c 0,-5.59279 -1.98226,-8.8226 -6.59857,-10.75141 -4.43607,-1.85351 -14.77597,-1.76928 -21.31856,0.17366 -2.90408,0.86242 -5.4194,1.42492 -5.58961,1.25 -0.17021,-0.17492 -0.98307,-2.90539 -1.80635,-6.06772 l -1.49688,-5.74968 5.65498,-1.68846 c 7.76034,-2.31708 23.03245,-2.33535 29.68667,-0.0355 11.11635,3.84203 16.89155,11.76115 16.93617,23.22334 0.0584,15.00112 -8.53391,23.06529 -27.71785,26.01419 -3.73613,0.5743 -3.75,0.5943 -3.75,5.40612 0,2.65633 0.28125,6.23594 0.625,7.95469 l 0.625,3.125 13.875,0 13.875,0 0,6.5 0,6.5 -20.5,0 -20.5,0 -0.003,-5.75 z M 351.5,784.1632 c 26.17925,-4.02886 42.44123,-9.02926 64,-19.67938 41.98808,-20.74228 66.69992,-52.49241 76.65216,-98.48382 1.99648,-9.22617 2.27016,-13.29029 2.25586,-33.5 -0.0149,-21.13035 -0.2354,-24.03407 -2.71204,-35.72093 -6.28563,-29.66087 -18.2485,-51.658 -38.6541,-71.07658 -29.69983,-28.26324 -75.50505,-44.91567 -138.29188,-50.27584 -7.20234,-0.61487 -7.75,-0.82243 -7.75,-2.93719 0,-1.25156 1.32112,-18.18619 2.93582,-37.63251 1.6147,-19.44632 3.24321,-39.74445 3.61892,-45.10695 l 0.6831,-9.75 81.38108,0 81.38108,0 0,-39 0,-39 -121,0 c -114.56862,0 -121.00039,0.093 -121.00738,1.75 -0.0182,4.32776 -3.12944,61.02432 -4.51343,82.25 -3.16971,48.61243 -8.01917,103.55813 -12.5328,142 -1.06554,9.075 -1.93937,16.99751 -1.94186,17.60559 -0.003,0.75167 6.79792,1.32322 21.24547,1.78545 63.83397,2.0423 102.30414,9.45325 127.90935,24.64066 14.28915,8.47542 22.82073,18.80429 27.7647,33.61368 7.74599,23.20265 5.91571,51.78316 -4.34058,67.7801 -9.4991,14.81592 -28.70925,25.73314 -53.08347,30.16758 -12.16561,2.21331 -47.84833,2.51279 -65,0.54554 -20.99677,-2.40827 -44.49638,-8.56465 -63.8519,-16.72777 -4.40707,-1.85867 -8.22524,-3.16702 -8.48481,-2.90745 C 197.70402,684.96265 179,760.7404 179,762.14182 c 0,1.04395 17.13154,7.48878 29.06476,10.93408 14.09344,4.06899 36.15937,8.43145 54.93524,10.86076 22.30906,2.88645 22.06152,2.8739 50,2.53578 19.24058,-0.23285 28.69108,-0.7997 38.5,-2.30924 z M 125.5,109.5 l 0,-52 -34,0 -34,0 -0.260118,51 c -0.143065,28.05 -0.04239,51.5685 0.223732,52.26333 0.37938,0.99057 7.776618,1.20648 34.260118,1 L 125.5,161.5 l 0,-52 z m -49,40.86657 c -1.65,-0.25411 -5.319744,-1.11569 -8.154986,-1.91461 l -5.154986,-1.45259 1.49688,-5.74968 c 0.823283,-3.16233 1.636141,-5.8928 1.806351,-6.06772 0.170209,-0.17492 2.685533,0.38758 5.589607,1.25 6.542593,1.94294 16.882494,2.02717 21.31856,0.17366 C 98.017736,134.67682 100,131.44701 100,125.85422 c 0,-9.05467 -6.915245,-13.58988 -22.235127,-14.58241 l -8.79954,-0.5701 0.508287,-3.10085 C 70.374802,102.1031 71.993063,81.673557 71.996583,75.75 L 72,70 l 20.5,0 20.5,0 0,6.5 0,6.5 -13.875,0 -13.875,0 -0.625,3.125 C 84.28125,87.84375 84,91.423359 84,94.079687 c 0,4.811827 0.01387,4.831819 3.75,5.406126 19.18394,2.948897 27.77623,11.013067 27.71785,26.014187 -0.0439,11.27886 -5.81257,19.36684 -16.411844,23.01031 -4.726066,1.62457 -17.327012,2.66157 -22.556006,1.85626 z"
     id="path2987"
     inkscape:connector-curvature="0" />
</svg>
