<?xml version="1.0" encoding="UTF-8" standalone="no"?>
<!-- Created with Inkscape (http://www.inkscape.org/) -->

<svg
   xmlns:dc="http://purl.org/dc/elements/1.1/"
   xmlns:cc="http://creativecommons.org/ns#"
   xmlns:rdf="http://www.w3.org/1999/02/22-rdf-syntax-ns#"
   xmlns:svg="http://www.w3.org/2000/svg"
   xmlns="http://www.w3.org/2000/svg"
   xmlns:sodipodi="http://sodipodi.sourceforge.net/DTD/sodipodi-0.dtd"
   xmlns:inkscape="http://www.inkscape.org/namespaces/inkscape"
   id="svg2"
   version="1.1"
   inkscape:version="0.48.4 r9939"
   width="690"
   height="1050"
   sodipodi:docname="8.bmp">
  <metadata
     id="metadata8">
    <rdf:RDF>
      <cc:Work
         rdf:about="">
        <dc:format>image/svg+xml</dc:format>
        <dc:type
           rdf:resource="http://purl.org/dc/dcmitype/StillImage" />
        <dc:title></dc:title>
      </cc:Work>
    </rdf:RDF>
  </metadata>
  <defs
     id="defs6" />
  <sodipodi:namedview
     pagecolor="#ffffff"
     bordercolor="#666666"
     borderopacity="1"
     objecttolerance="10"
     gridtolerance="10"
     guidetolerance="10"
     inkscape:pageopacity="0"
     inkscape:pageshadow="2"
     inkscape:window-width="640"
     inkscape:window-height="480"
     id="namedview4"
     showgrid="false"
     inkscape:zoom="0.2247619"
     inkscape:cx="345"
     inkscape:cy="525"
     inkscape:window-x="0"
     inkscape:window-y="27"
     inkscape:window-maximized="0"
     inkscape:current-layer="svg2" />
  <path
     style="fill:#000000"
     d="m 50.5,1010.4972 c -5.059981,-1.7899 -11.013834,-8.0834 -12.412468,-13.12062 -1.552883,-5.59271 -1.520109,-940.278213 0.03317,-945.87328 1.448483,-5.217596 8.165006,-11.934119 13.382602,-13.382602 5.69039,-1.579738 580.303006,-1.579738 585.993396,0 5.2176,1.448483 11.93412,8.165006 13.3826,13.382602 1.58311,5.702526 1.58311,940.29087 0,945.9934 -1.44848,5.2176 -8.165,11.9341 -13.3826,13.3826 -2.88665,0.8014 -84.40271,1.0989 -293.4967,1.0712 -246.979563,-0.033 -290.087498,-0.2461 -293.499996,-1.4533 z m 581,-70.9972 0,-52 -34,0 -34,0 -0.26012,51 c -0.14306,28.05 -0.0424,51.5685 0.22373,52.26333 0.37938,0.99057 7.77662,1.20648 34.26012,1 L 631.5,991.5 l 0,-52 z m -44.28436,39.67445 c -6.12266,-2.19027 -9.63126,-5.15532 -12.33165,-10.42125 -4.3223,-8.42877 -3.28236,-18.09273 2.65408,-24.66365 l 3.43045,-3.79711 -3.94612,-4.14823 c -3.79464,-3.989 -7.03015,-11.63218 -7.01682,-16.57571 0.0119,-4.40857 2.27522,-9.87355 5.62454,-13.58085 4.85761,-5.37679 10.88993,-7.4889 21.36988,-7.48228 7.29212,0.005 9.31828,0.40641 14.25831,2.82761 7.01081,3.43612 10.44328,7.70454 11.89975,14.79786 1.65248,8.04794 -0.0581,13.12265 -6.55813,19.45611 l -5.22076,5.08694 3.7984,3.75305 c 3.66935,3.62554 6.83022,11.04661 6.81685,16.00456 -0.0203,7.51642 -5.26293,15.25841 -12.21671,18.04076 -6.58789,2.63596 -16.31058,2.93855 -22.56207,0.70219 z m 16.81744,-13.85574 c 2.95154,-2.48355 3.15186,-3.04216 2.71636,-7.57449 -0.46127,-4.80061 -2.76377,-9.08911 -5.96364,-11.10754 -2.18142,-1.376 -9.11812,1.78111 -12.34849,5.62019 -8.1936,9.73754 5.70882,21.38116 15.59577,13.06184 z m -5.10616,-33.28182 C 605.72194,928.60678 609,924.94978 609,920.7994 609,914.75941 604.43346,911 597.09671,911 589.35915,911 585,915.05568 585,922.25456 585,925.74559 590.08739,935 592.00649,935 c 0.5778,0 3.69199,-1.3334 6.92043,-2.96311 z M 381.5,784.54221 c 55.07046,-8.69857 98.09316,-37.88651 115.53238,-78.38074 12.92638,-30.01534 14.47122,-62.94645 4.37034,-93.16147 -9.95887,-29.79021 -28.03208,-51.13613 -62.2284,-73.49677 -5.67913,-3.71352 -9.95413,-7.07753 -9.5,-7.47557 0.45412,-0.39804 3.97568,-2.9253 7.82568,-5.61613 9.5203,-6.65389 23.4981,-20.25694 30.56629,-29.7468 10.98599,-14.74995 20.24493,-36.06818 24.61065,-56.66473 2.27725,-10.74359 2.52953,-39.93352 0.43646,-50.5 -9.30127,-46.95572 -42.93296,-80.17476 -94.67845,-93.51677 -34.05611,-8.781 -82.53858,-7.72352 -112.98466,2.46437 -54.47958,18.23001 -87.00803,60.32782 -92.55991,119.78959 -2.48185,26.58116 4.76054,56.83493 18.6383,77.85809 5.86248,8.88096 19.99899,23.23579 30.87153,31.34831 7.63824,5.69925 7.83367,5.94715 5.89339,7.47557 -1.10375,0.86946 -5.65739,4.43628 -10.11919,7.92627 -28.76734,22.50157 -47.84876,53.06348 -54.87107,87.88467 -2.51411,12.4666 -2.4951,42.4914 0.0342,54.06597 5.32802,24.38169 15.71298,43.24215 32.98276,59.90104 10.46735,10.09709 19.65893,16.50052 33.52253,23.3539 17.54342,8.67247 41.81885,15.37072 64.65713,17.84064 13.04348,1.41063 54.85787,0.56845 67,-1.34944 z m -54.03355,-76.98889 c -23.69554,-3.68343 -43.63089,-16.18484 -51.9792,-32.59603 -4.56323,-8.97045 -5.93691,-15.64818 -5.85397,-28.45729 0.0647,-9.99393 0.52862,-13.50455 2.77498,-21 5.76238,-19.22732 16.32712,-36.14562 32.09961,-51.40407 l 9.29856,-8.9955 7.34678,2.8453 c 25.15105,9.74064 53.39072,23.30811 66.38851,31.89568 10.19276,6.7343 21.23763,17.81459 24.83088,24.91051 5.46407,10.79037 7.68635,25.03841 5.65366,36.24808 -1.81122,9.98829 -6.449,18.38752 -14.72186,26.66197 -16.92127,16.9245 -45.94761,24.53775 -75.83795,19.89135 z M 350.5,497.05301 c -37.48244,-16.0313 -58.68476,-31.13529 -66.35022,-47.26622 -3.41793,-7.19256 -6.15782,-19.25342 -6.13242,-26.99463 0.067,-20.40911 9.68251,-36.21057 27.75715,-45.61404 12.36333,-6.43211 21.16668,-8.47022 36.72549,-8.50252 15.4657,-0.0321 23.28654,1.60857 35.25738,7.39634 19.69623,9.52293 29.41863,26.94157 27.8679,49.92806 -0.9963,14.76801 -6.0749,30.86379 -14.03885,44.49376 -4.00371,6.8522 -20.66891,24.82582 -27.08643,29.21307 l -3,2.0509 -11,-4.70472 z M 125.5,109.5 l 0,-52 -34,0 -34,0 -0.260118,51 c -0.143065,28.05 -0.04239,51.5685 0.223732,52.26333 0.37938,0.99057 7.776618,1.20648 34.260118,1 L 125.5,161.5 l 0,-52 z M 81.717502,149.97199 C 71.270084,147.33633 64.031217,138.94143 64.005577,129.4315 c -0.01333,-4.94353 3.222181,-12.58671 7.016827,-16.57571 l 3.946117,-4.14823 -3.430455,-3.79711 c -7.888499,-8.731621 -6.712323,-23.537368 2.484586,-31.276057 9.524499,-8.014337 29.608798,-6.803268 37.221958,2.244457 2.65822,3.15912 4.73911,8.718433 4.74981,12.689649 0.0134,4.957954 -3.1475,12.379021 -6.81685,16.004561 l -3.7984,3.75305 5.22076,5.08694 c 6.50007,6.33346 8.21061,11.40817 6.55813,19.45611 -1.4377,7.00187 -4.87916,11.35803 -11.55248,14.62298 -6.068066,2.96883 -17.319799,4.13689 -23.888078,2.47985 z m 16.302514,-13.48234 c 5.324604,-2.75346 6.641264,-9.10795 2.878384,-13.89168 C 98.939797,120.10801 88.360568,114 86.006493,114 c -0.577798,0 -2.39063,2.1131 -4.028517,4.69578 -4.540154,7.15908 -3.64134,14.70874 2.132095,17.90871 3.232151,1.79145 10.337026,1.73279 13.909945,-0.11484 z M 96.759074,100.75 C 99.449553,97.877877 101,93.77367 101,89.523794 101,81.591079 88.979385,77.866769 82.923077,83.923077 c -5.355531,5.35553 -3.222137,12.755263 4.917104,17.055103 4.787319,2.52907 6.374049,2.48847 8.918893,-0.22818 z"
     id="path2987"
     inkscape:connector-curvature="0" />
</svg>
