<?xml version="1.0" encoding="UTF-8" standalone="no"?>
<!-- Created with Inkscape (http://www.inkscape.org/) -->

<svg
   xmlns:dc="http://purl.org/dc/elements/1.1/"
   xmlns:cc="http://creativecommons.org/ns#"
   xmlns:rdf="http://www.w3.org/1999/02/22-rdf-syntax-ns#"
   xmlns:svg="http://www.w3.org/2000/svg"
   xmlns="http://www.w3.org/2000/svg"
   xmlns:sodipodi="http://sodipodi.sourceforge.net/DTD/sodipodi-0.dtd"
   xmlns:inkscape="http://www.inkscape.org/namespaces/inkscape"
   id="svg2"
   version="1.1"
   inkscape:version="0.48.4 r9939"
   width="690"
   height="1050"
   sodipodi:docname="coffee.bmp">
  <metadata
     id="metadata8">
    <rdf:RDF>
      <cc:Work
         rdf:about="">
        <dc:format>image/svg+xml</dc:format>
        <dc:type
           rdf:resource="http://purl.org/dc/dcmitype/StillImage" />
        <dc:title></dc:title>
      </cc:Work>
    </rdf:RDF>
  </metadata>
  <defs
     id="defs6" />
  <sodipodi:namedview
     pagecolor="#ffffff"
     bordercolor="#666666"
     borderopacity="1"
     objecttolerance="10"
     gridtolerance="10"
     guidetolerance="10"
     inkscape:pageopacity="0"
     inkscape:pageshadow="2"
     inkscape:window-width="640"
     inkscape:window-height="480"
     id="namedview4"
     showgrid="false"
     inkscape:zoom="0.2247619"
     inkscape:cx="345"
     inkscape:cy="525"
     inkscape:window-x="0"
     inkscape:window-y="27"
     inkscape:window-maximized="0"
     inkscape:current-layer="svg2" />
  <path
     style="fill:#000000"
     d="m 50.5,1010.4972 c -5.059981,-1.7899 -11.013834,-8.0834 -12.412468,-13.12062 -1.552883,-5.59271 -1.520109,-940.278213 0.03317,-945.87328 1.448483,-5.217596 8.165006,-11.934119 13.382602,-13.382602 5.69039,-1.579738 580.303006,-1.579738 585.993396,0 5.2176,1.448483 11.93412,8.165006 13.3826,13.382602 1.58311,5.702526 1.58311,940.29087 0,945.9934 -1.44848,5.2176 -8.165,11.9341 -13.3826,13.3826 -2.88665,0.8014 -84.40271,1.0989 -293.4967,1.0712 -246.979563,-0.033 -290.087498,-0.2461 -293.499996,-1.4533 z m 581,-70.9972 0,-52 -34,0 -34,0 -0.26012,51 c -0.14306,28.05 -0.0424,51.5685 0.22373,52.26333 0.37938,0.99057 7.77662,1.20648 34.26012,1 L 631.5,991.5 l 0,-52 z m -39.83333,20.83333 c -1.38171,-1.3817 -0.58969,-6.20001 1.39268,-8.47255 l 2.05935,-2.36078 -1.67313,2.74812 c -0.98134,1.61186 -1.49096,3.98929 -1.23254,5.75 0.47598,3.24306 0.45427,3.33585 -0.54636,2.33521 z M 584,941.31455 c 15.90692,-0.71882 31.77492,-0.75149 31.34804,-0.0646 -0.25634,0.4125 -8.87702,0.66186 -19.15706,0.55414 C 585.91094,941.69642 580.425,941.4761 584,941.31455 z M 578,935.25 c 0,-0.4125 8.325,-0.75 18.5,-0.75 10.175,0 18.5,0.3375 18.5,0.75 0,0.4125 -8.325,0.75 -18.5,0.75 -10.175,0 -18.5,-0.3375 -18.5,-0.75 z m 1.03544,-3 c 0.0195,-0.4125 0.58198,-1.65 1.25,-2.75 1.12916,-1.85938 2.28608,-2 16.45444,-2 11.26992,0 15.36459,0.32562 15.71862,1.25 0.37061,0.96768 -3.11453,1.25 -15.43087,1.25 -9.99736,0 -16.14991,0.38883 -16.55626,1.04633 -0.44322,0.71715 4.72968,0.9531 16.44226,0.75 9.39892,-0.16298 17.08836,0.0412 17.08765,0.45367 -7e-4,0.4125 -7.87628,0.75 -17.50128,0.75 -9.625,0 -17.48405,-0.3375 -17.46456,-0.75 z m 3.95793,-7.62494 c 1.39669,-1.79499 1.2254,-1.85046 -4.01723,-1.30082 l -5.47614,0.57413 6.6751,-1.70762 c 3.67131,-0.93919 7.00881,-2.04132 7.41667,-2.44918 1.29027,-1.29027 15.67141,-0.80129 19.8748,0.67577 2.21839,0.77954 6.05843,1.87361 8.53343,2.43128 4.33629,0.97705 4.28197,0.99295 -1.4933,0.43704 -5.77233,-0.55563 -5.93888,-0.50701 -4.51723,1.31872 1.42503,1.83008 1.40479,1.83512 -0.58544,0.14562 C 607.71676,923.31769 605.37421,923 596.5,923 c -8.87421,0 -11.21676,0.31769 -12.90403,1.75 -1.98663,1.68644 -2.00852,1.6819 -0.6026,-0.12494 z M 405.25384,695.25 c 0.86009,-0.9625 1.71734,-2.85637 1.90498,-4.2086 0.30964,-2.23129 1.54315,-2.80888 13.34118,-6.24702 7.15,-2.08362 19.3,-4.94387 27,-6.35611 44.72233,-8.2024 53.13124,-9.83552 64.28198,-12.48446 C 525.69243,662.64928 528,661.6777 528,659.12533 c 0,-4.10239 -2.98169,-4.10939 -45.10026,-0.1058 -22.21986,2.11211 -42.5417,4.07609 -45.15966,4.36439 l -4.75992,0.5242 3.72423,-5.25237 3.72422,-5.25237 5.5357,0.38983 c 8.68916,0.61189 15.95779,-2.61662 24.32693,-10.80528 6.28848,-6.15288 7.48278,-6.87312 14.5302,-8.76262 17.26713,-4.62953 25.07442,-8.93187 29.80401,-16.42403 8.04894,-12.75036 17.05623,-39.99168 19.27721,-58.30128 2.19027,-18.0565 1.17389,-25.19575 -4.47756,-31.45123 -6.06377,-6.71186 -17.44078,-9.94297 -35.27389,-10.01789 -6.8629,-0.0288 -7.53469,-0.22989 -10.16044,-3.04076 l -2.81166,-3.00989 -146.67167,0.25989 -146.67167,0.25988 -3.06286,3.42804 -3.06287,3.42803 0.60602,14.57197 c 1.79864,43.24934 15.8272,82.39802 43.19593,120.54434 3.06707,4.27486 5.41131,7.93765 5.20942,8.13954 -0.20189,0.20189 -17.30164,-1.27503 -37.99945,-3.28204 C 152.3112,655.41136 152,655.42095 152,660.5837 c 0,1.94494 0.85024,2.59131 5.04867,3.83811 7.81339,2.32033 37.05234,8.93855 74.95133,16.9652 33.25756,7.04364 34.51229,7.39332 34.84118,9.70988 0.18764,1.32171 1.04489,3.19061 1.90498,4.15311 1.45975,1.63354 6.00194,1.75 68.25384,1.75 62.2519,0 66.79409,-0.11646 68.25384,-1.75 z M 280.56735,665.92747 c -11.51296,-0.50885 -24.99708,-1.26321 -29.9647,-1.67633 L 241.5706,663.5 233.5353,652.85969 c -7.48568,-9.9125 -16.60664,-24.07687 -18.10087,-28.10969 -0.61526,-1.66053 5.47134,-1.75 119.0536,-1.75 l 119.70201,0 -2.75077,4.75 c -5.41338,9.34778 -17.01297,25.7731 -21.93657,31.06276 l -5.01179,5.38441 -13.99546,0.88256 c -21.23653,1.33918 -106.25826,1.89392 -129.9281,0.84774 z M 452.1207,637.75 c 3.34612,-5.0875 7.84719,-12.45543 10.00237,-16.37319 l 3.9185,-7.12318 5.95613,-0.67386 c 8.71778,-0.9863 15.86425,-3.29996 21.31476,-6.90062 9.6897,-6.40109 18.1566,-23.24707 20.60764,-41.00151 C 516.88468,544.20335 513.95648,540 496.03212,540 L 487,540 l 0,-7.63273 0,-7.63273 12.75,0.53324 c 15.4918,0.6479 21.88831,2.41731 26.10656,7.22163 4.06222,4.62661 4.63255,8.57397 3.23391,22.38238 -2.5945,25.61465 -11.63473,51.29064 -21.79061,61.88946 -4.21408,4.39787 -5.77619,5.28199 -12.79986,7.24445 -14.96038,4.18001 -22.76865,7.70018 -25.5,11.49607 -4.39602,6.10934 -13.64998,11.34858 -20.23158,11.45434 -2.72732,0.0438 -2.72211,0.0295 3.35228,-9.20611 z M 206.08921,602.68428 C 204.94014,600.31063 204,597.83563 204,597.18428 204,596.27791 234.85889,596 335.5,596 c 72.325,0 131.5,0.23996 131.5,0.53324 0,0.29329 -1.13258,2.76829 -2.51685,5.5 L 461.96631,607 l -126.89395,0 -126.89395,0 -2.0892,-4.31572 z m 264.42551,0.704 c 6.58528,-15.45184 11.83932,-33.3376 13.81116,-47.01589 l 1.27903,-8.87239 10.59334,-0.28277 c 13.9255,-0.37173 14.21651,-0.11529 13.25666,11.68157 -0.82797,10.17613 -3.48166,21.27315 -6.50373,27.1969 -5.44288,10.66891 -17.06022,18.93816 -28.77238,20.48024 l -5.32119,0.70061 1.65711,-3.88827 z M 197.60858,579.97976 C 196.72386,577.76863 196,575.29363 196,574.47976 196,573.18048 213.01455,573 335.5,573 l 139.5,0 0,2.03212 c 0,1.11766 -0.65204,3.59266 -1.44897,5.5 L 472.10205,584 l -136.44244,0 -136.44245,0 -1.60858,-4.02024 z m -6.97689,-21.76668 C 189.618,556.57289 187,535.96203 187,529.62166 c 0,-5.28833 0.40272,-7.02438 2,-8.62166 1.98146,-1.98146 3.33333,-2 145.80887,-2 119.21884,0 144.12487,0.23106 145.6569,1.35131 1.67819,1.22713 1.78627,2.35287 1.17606,12.25 -0.36957,5.99428 -1.16694,14.38619 -1.77193,18.64869 l -1.09998,7.75 -143.82594,0 c -79.10427,0 -144.0448,-0.35411 -144.31229,-0.78692 z M 361.56823,503.25 c 2.93246,-13.29995 7.80521,-23.79245 14.92043,-32.12814 6.53047,-7.65064 8.88554,-14.5689 8.89225,-26.12186 0.006,-11.15133 -1.78137,-16.64275 -8.17579,-25.11209 -3.54511,-4.69547 -6.52831,-10.31764 -9.75689,-18.38791 -0.76728,-1.91793 -0.81636,-1.90696 -1.196,0.26735 -0.58109,3.32814 1.4113,8.76708 6.32174,17.2574 5.76681,9.971 7.81847,18.14154 7.17084,28.55716 -0.60964,9.80476 -2.97731,15.60063 -9.0425,22.13532 -2.44153,2.63052 -5.1757,6.22746 -6.07594,7.99319 -3.14953,6.1775 -6.76856,28.28958 -4.63009,28.28958 0.53109,0 1.23847,-1.2375 1.57195,-2.75 z m -29.08364,-18 c -1.59054,-18.79872 -4.25342,-30.92182 -8.72072,-39.70218 -1.10594,-2.17369 -5.50367,-7.59938 -9.77273,-12.05707 -12.846,-13.41362 -16.5048,-23.51424 -15.75391,-43.49075 0.54712,-14.55536 3.09322,-22.16367 12.29177,-36.73047 7.29447,-11.55149 11.471,-21.3368 11.471,-26.87569 0,-5.20153 -1.88706,-3.81907 -4.45048,3.26042 -2.99198,8.26304 -6.67477,14.40308 -14.23325,23.73004 -8.59307,10.6036 -10.95379,14.87848 -13.31528,24.11183 -3.62382,14.169 -2.20214,31.24906 3.71201,44.59589 1.11913,2.52562 5.28478,8.15062 9.25701,12.5 13.86775,15.18449 21.42263,29.34971 25.40247,47.62901 1.33858,6.14807 2.60138,9.773 3.40537,9.7753 0.96751,0.003 1.13915,-1.63562 0.70674,-6.74633 z M 125.5,109.5 l 0,-52 -34,0 -34,0 -0.260118,51 c -0.143065,28.05 -0.04239,51.5685 0.223732,52.26333 0.37938,0.99057 7.776618,1.20648 34.260118,1 L 125.5,161.5 l 0,-52 z m -43.908232,19.75843 c -0.407861,-0.40786 -3.745361,-1.50999 -7.416667,-2.44918 L 67.5,125.10163 l 5.476135,0.57413 c 5.242633,0.54964 5.413928,0.49417 4.017233,-1.30082 -1.405915,-1.80684 -1.384029,-1.81138 0.602606,-0.12494 1.687268,1.43231 4.029821,1.75 12.904026,1.75 8.874205,0 11.21676,-0.31769 12.90403,-1.75 1.99023,-1.6895 2.01047,-1.68446 0.58544,0.14562 -1.42165,1.82573 -1.2551,1.87435 4.51723,1.31872 5.77527,-0.55591 5.82959,-0.54001 1.4933,0.43704 -2.475,0.55767 -6.31504,1.65174 -8.53343,2.43128 -4.203391,1.47706 -18.584533,1.96604 -19.874802,0.67577 z M 74.046607,119.20295 C 73.470973,117.93957 73,116.70207 73,116.45295 73,116.20383 80.875,116 90.5,116 c 9.625,0 17.50058,0.3375 17.50128,0.75 7.1e-4,0.4125 -7.68873,0.61665 -17.087648,0.45367 -11.712583,-0.2031 -16.885486,0.0328 -16.442266,0.75 0.406357,0.6575 6.558907,1.04633 16.556266,1.04633 12.316838,0 15.801278,0.28228 15.429928,1.25 -0.35508,0.92533 -4.49063,1.25 -15.922007,1.25 -15.137581,0 -15.462993,-0.0453 -16.488946,-2.29705 z M 72,113.75 c 0,-0.4125 8.325,-0.75 18.5,-0.75 10.175,0 18.5,0.3375 18.5,0.75 0,0.4125 -8.325,0.75 -18.5,0.75 -10.175,0 -18.5,-0.3375 -18.5,-0.75 z m 18.5,-5.75 -19,-0.56693 18.690983,-0.21654 C 101.81253,107.0819 109.11572,107.37823 109.5,108 c 0.33992,0.55 0.47898,0.90256 0.30902,0.78347 C 109.63906,108.66437 100.95,108.31181 90.5,108 z M 86.556704,96.777494 c -1.655668,-2.363798 -2.103525,-7.321506 -0.737648,-8.165664 0.450481,-0.278413 0.624282,0.820877 0.386224,2.442866 -0.252278,1.718878 0.249965,3.99115 1.203997,5.447188 2.026108,3.092231 1.287504,3.330998 -0.852573,0.27561 z"
     id="path2987"
     inkscape:connector-curvature="0" />
</svg>
