<?xml version="1.0" encoding="UTF-8" standalone="no"?>
<!-- Created with Inkscape (http://www.inkscape.org/) -->

<svg
   xmlns:dc="http://purl.org/dc/elements/1.1/"
   xmlns:cc="http://creativecommons.org/ns#"
   xmlns:rdf="http://www.w3.org/1999/02/22-rdf-syntax-ns#"
   xmlns:svg="http://www.w3.org/2000/svg"
   xmlns="http://www.w3.org/2000/svg"
   xmlns:sodipodi="http://sodipodi.sourceforge.net/DTD/sodipodi-0.dtd"
   xmlns:inkscape="http://www.inkscape.org/namespaces/inkscape"
   id="svg2"
   version="1.1"
   inkscape:version="0.48.4 r9939"
   width="690"
   height="1050"
   sodipodi:docname="half.bmp">
  <metadata
     id="metadata8">
    <rdf:RDF>
      <cc:Work
         rdf:about="">
        <dc:format>image/svg+xml</dc:format>
        <dc:type
           rdf:resource="http://purl.org/dc/dcmitype/StillImage" />
        <dc:title></dc:title>
      </cc:Work>
    </rdf:RDF>
  </metadata>
  <defs
     id="defs6" />
  <sodipodi:namedview
     pagecolor="#ffffff"
     bordercolor="#666666"
     borderopacity="1"
     objecttolerance="10"
     gridtolerance="10"
     guidetolerance="10"
     inkscape:pageopacity="0"
     inkscape:pageshadow="2"
     inkscape:window-width="640"
     inkscape:window-height="480"
     id="namedview4"
     showgrid="false"
     inkscape:zoom="0.2247619"
     inkscape:cx="345"
     inkscape:cy="525"
     inkscape:window-x="0"
     inkscape:window-y="27"
     inkscape:window-maximized="0"
     inkscape:current-layer="svg2" />
  <path
     style="fill:#000000"
     d="m 50.5,1010.4972 c -5.059981,-1.7899 -11.013834,-8.0834 -12.412468,-13.12062 -1.552883,-5.59271 -1.520109,-940.278213 0.03317,-945.87328 1.448483,-5.217596 8.165006,-11.934119 13.382602,-13.382602 5.69039,-1.579738 580.303006,-1.579738 585.993396,0 5.2176,1.448483 11.93412,8.165006 13.3826,13.382602 1.58311,5.702526 1.58311,940.29087 0,945.9934 -1.44848,5.2176 -8.165,11.9341 -13.3826,13.3826 -2.88665,0.8014 -84.40271,1.0989 -293.4967,1.0712 -246.979563,-0.033 -290.087498,-0.2461 -293.499996,-1.4533 z m 581,-70.9972 0,-52 -34,0 -34,0 -0.26012,51 c -0.14306,28.05 -0.0424,51.5685 0.22373,52.26333 0.37938,0.99057 7.77662,1.20648 34.26012,1 L 631.5,991.5 l 0,-52 z m -55.55572,37.92249 c -1.89435,-1.41763 -5.09293,-3.43196 -7.10796,-4.47629 -3.57829,-1.85452 -3.63847,-1.9809 -2.58222,-5.42249 1.18655,-3.86612 2.01347,-4.15736 5.7459,-2.02371 1.375,0.78602 2.8375,1.44508 3.25,1.46456 0.4125,0.0195 0.75,-4.23956 0.75,-9.46456 l 0,-9.5 5.5,0 5.5,0 0,16 0,16 -3.80572,0 c -2.53243,0 -4.95808,-0.86236 -7.25,-2.57751 z M 600.77324,961.75 c -4.78513,-9.4875 -13.84894,-27.2625 -20.1418,-39.5 L 569.18987,900 l 6.15506,0.0188 6.15507,0.0188 5.60692,10.73119 c 3.08381,5.90215 12.22707,23.66869 20.31837,39.48119 l 14.71144,28.75 -6.33163,0 -6.33162,0 -8.70024,-17.25 z m 5.46152,-30.6706 c -5.32856,-2.49268 -5.98854,-4.14085 -3.17952,-7.94025 l 2.21657,-2.99807 2.72794,2.01685 c 3.47921,2.5723 7.38807,2.13126 7.81639,-0.88192 0.24177,-1.70075 -0.81201,-2.99472 -4.47903,-5.5 C 603.27562,910.26849 601,907.58297 601,903.57692 L 601,900 l 13.5,0 13.5,0 0,4 0,4 -7.25,0.0312 -7.25,0.0312 3.7837,2.32613 c 8.30171,5.10371 11.03742,10.00644 8.82728,15.81956 -2.27145,5.97436 -12.27649,8.42641 -19.87622,4.87129 z M 374.51003,539.5 l 121.45909,-237 -38.1725,-0.26206 c -20.99487,-0.14413 -38.48624,0.0809 -38.86969,0.5 C 418.19086,303.54249 176,776.02442 176,776.65584 c 0,0.20221 17.33646,0.24986 38.52547,0.1059 L 253.05094,776.5 374.51003,539.5 z M 529,753.01097 l 0,-23.98903 -41.52451,-0.26097 -41.5245,-0.26097 6.2745,-4.08185 c 3.45098,-2.24501 10.96193,-6.67128 16.69099,-9.83615 23.43022,-12.94338 38.34037,-25.17065 46.95961,-38.50987 5.926,-9.17111 8.228,-17.27888 8.8222,-31.07213 0.83258,-19.32704 -3.07842,-31.89599 -13.39082,-43.03461 -24.0197,-25.94414 -73.83732,-31.53892 -115.04542,-12.92019 -8.33901,3.76775 -19.5333,11.62425 -26.212,18.39641 l -5.44995,5.52622 2.38804,3.26608 c 1.31343,1.79635 8.43093,11.06863 15.81667,20.60507 l 13.42862,17.33898 3.63328,-3.41641 c 19.78065,-18.59988 47.32656,-24.50166 56.99428,-12.21115 2.79549,3.55389 3.66686,10.51306 2.15965,17.24798 -1.71896,7.68113 -7.58229,13.25112 -27.02064,25.66882 -26.67726,17.04211 -46.06816,31.89792 -53.54418,41.02141 -4.46231,5.44566 -8.17925,13.71092 -9.97294,22.1766 -1.48509,7.00911 -1.97331,23.63263 -0.85788,29.20979 l 0.625,3.125 80.375,0 80.375,0 0,-23.98903 z M 285,392 l 0,-96 -24.13695,0 -24.13695,0 -7.14157,6.39168 c -17.13597,15.33661 -34.46101,26.59796 -60.38458,39.25024 -14.01292,6.83916 -15.2418,7.65204 -14.60772,9.66272 5.57495,17.67807 13.63866,42.25958 13.97225,42.59318 1.58545,1.58544 26.48055,-7.76512 41.18552,-15.46922 l 10.25,-5.37009 0,57.47075 0,57.47074 32.5,0 32.5,0 0,-96 z m -159.5,-282.5 0,-52 -34,0 -34,0 -0.260118,51 c -0.143065,28.05 -0.04239,51.5685 0.223732,52.26333 0.37938,0.99057 7.776618,1.20648 34.260118,1 L 125.5,161.5 l 0,-52 z M 74.631435,126.75 C 80.924297,114.5125 89.98811,96.7375 94.773241,87.25 L 103.47348,70 l 6.33162,0 6.33163,0 -14.71144,28.75 c -8.091297,15.8125 -17.23456,33.57904 -20.318368,39.48119 L 75.5,148.96238 69.344934,148.98119 63.189867,149 74.631435,126.75 z M 95,145.42308 c 0,-4.00605 2.27562,-6.69157 10.33711,-12.19909 3.66702,-2.50528 4.7208,-3.79925 4.47903,-5.5 -0.42832,-3.01318 -4.33718,-3.45422 -7.81639,-0.88192 l -2.72794,2.01685 -2.281831,-3.08634 c -2.855961,-3.8629 -1.969156,-5.56957 4.237501,-8.15513 5.64111,-2.34996 12.55002,-1.57307 16.54126,1.86005 2.21924,1.90891 2.73126,3.18948 2.73126,6.83093 0,5.16718 -1.67129,7.48882 -8.5,11.80758 l -4.5,2.84599 7.25,0.019 7.25,0.019 0,4 0,4 -13.5,0 -13.5,0 0,-3.57692 z M 70,91.5 C 70,86.275 69.6625,82.015946 69.25,82.035435 68.8375,82.054925 67.375,82.713979 66,83.5 62.267567,85.633652 61.440651,85.342411 60.254104,81.476285 59.19785,78.034696 59.258032,77.908317 62.836322,76.053796 64.851345,75.00947 68.049926,72.995141 69.94428,71.577511 72.2362,69.862363 74.661847,69 77.19428,69 L 81,69 l 0,16 0,16 -5.5,0 -5.5,0 0,-9.5 z"
     id="path2987"
     inkscape:connector-curvature="0" />
</svg>
