<?xml version="1.0" encoding="UTF-8" standalone="no"?>
<!-- Created with Inkscape (http://www.inkscape.org/) -->

<svg
   xmlns:dc="http://purl.org/dc/elements/1.1/"
   xmlns:cc="http://creativecommons.org/ns#"
   xmlns:rdf="http://www.w3.org/1999/02/22-rdf-syntax-ns#"
   xmlns:svg="http://www.w3.org/2000/svg"
   xmlns="http://www.w3.org/2000/svg"
   xmlns:sodipodi="http://sodipodi.sourceforge.net/DTD/sodipodi-0.dtd"
   xmlns:inkscape="http://www.inkscape.org/namespaces/inkscape"
   id="svg2"
   version="1.1"
   inkscape:version="0.48.4 r9939"
   width="690"
   height="1050"
   sodipodi:docname="infinity.bmp">
  <metadata
     id="metadata8">
    <rdf:RDF>
      <cc:Work
         rdf:about="">
        <dc:format>image/svg+xml</dc:format>
        <dc:type
           rdf:resource="http://purl.org/dc/dcmitype/StillImage" />
        <dc:title></dc:title>
      </cc:Work>
    </rdf:RDF>
  </metadata>
  <defs
     id="defs6" />
  <sodipodi:namedview
     pagecolor="#ffffff"
     bordercolor="#666666"
     borderopacity="1"
     objecttolerance="10"
     gridtolerance="10"
     guidetolerance="10"
     inkscape:pageopacity="0"
     inkscape:pageshadow="2"
     inkscape:window-width="640"
     inkscape:window-height="480"
     id="namedview4"
     showgrid="false"
     inkscape:zoom="0.2247619"
     inkscape:cx="345"
     inkscape:cy="525"
     inkscape:window-x="0"
     inkscape:window-y="27"
     inkscape:window-maximized="0"
     inkscape:current-layer="svg2" />
  <path
     style="fill:#000000"
     d="m 50.5,1010.4972 c -5.059981,-1.7899 -11.013834,-8.0834 -12.412468,-13.12062 -1.552883,-5.59271 -1.520109,-940.278213 0.03317,-945.87328 1.448483,-5.217596 8.165006,-11.934119 13.382602,-13.382602 5.69039,-1.579738 580.303006,-1.579738 585.993396,0 5.2176,1.448483 11.93412,8.165006 13.3826,13.382602 1.58311,5.702526 1.58311,940.29087 0,945.9934 -1.44848,5.2176 -8.165,11.9341 -13.3826,13.3826 -2.88665,0.8014 -84.40271,1.0989 -293.4967,1.0712 -246.979563,-0.033 -290.087498,-0.2461 -293.499996,-1.4533 z m 581,-70.9972 0,-52 -34,0 -34,0 -0.26012,51 c -0.14306,28.05 -0.0424,51.5685 0.22373,52.26333 0.37938,0.99057 7.77662,1.20648 34.26012,1 L 631.5,991.5 l 0,-52 z m -53,17.29377 c -12.13417,-4.24022 -15.22431,-21.30476 -5.60068,-30.92839 6.37094,-6.37094 15.94665,-6.11032 22.67409,0.61712 l 2.59255,2.59255 3.13154,-3.06165 c 6.51135,-6.36605 15.70806,-6.20784 22.29951,0.38361 3.03975,3.03975 5.39184,8.75568 5.39184,13.10299 0,4.34731 -2.35209,10.06324 -5.39184,13.10299 -6.5465,6.5465 -15.81245,6.73473 -22.53201,0.45773 l -3.11986,-2.91438 -2.72257,2.55942 c -5.17521,4.86509 -10.66108,6.20617 -16.72257,4.08801 z m 10.81291,-13.59849 C 590.79081,941.65269 592,939.98981 592,939.5 c 0,-1.83892 -5.46111,-6.5 -7.61566,-6.5 -4.90328,0 -7.3113,7.21325 -3.72935,11.17126 2.36975,2.61855 5.55853,2.25908 8.65792,-0.97598 z m 26.11566,1.23329 C 618.95612,940.90102 616.26234,933 611.5321,933 609.44158,933 604,937.69593 604,939.5 c 0,0.48981 1.20919,2.15269 2.68709,3.69528 2.99712,3.12832 6.37052,3.60426 8.74148,1.23329 z M 281.56426,631.10296 c 11.52639,-2.37892 21.79631,-7.15252 31.93574,-14.84417 7.82398,-5.93518 22.12634,-19.99319 28.03411,-27.55514 l 2.96589,-3.79635 5.68206,6.95768 c 6.66413,8.16022 21.40713,21.3178 31.28337,27.91924 23.67965,15.82786 56.93494,17.47254 85.26203,4.21673 32.01936,-14.98364 53.05216,-44.4228 58.20465,-81.46783 1.50632,-10.83004 1.31552,-29.31204 -0.42158,-40.8366 -5.33266,-35.37877 -26.37298,-63.9993 -57.8917,-78.74837 -11.81028,-5.52658 -22.11901,-7.99177 -36.11883,-8.63731 -19.97985,-0.92129 -36.18255,3.34776 -50.96889,13.42919 -8.22211,5.60589 -24.52798,20.97879 -30.59976,28.84895 l -4.27685,5.54359 -2.47351,-3.31628 C 336.43692,451.11509 318.05205,434.1118 309.09594,428.21752 294.54288,418.6397 283.63291,415.11603 266,414.29852 216.17359,411.98842 173.99171,447.49863 164.7908,499.5 c -3.34699,18.91645 -1.66271,46.84579 3.85955,64 4.18946,13.01406 14.47219,30.17624 23.98843,40.03742 22.70714,23.53019 56.98869,34.15694 88.92548,27.56554 z m -27.85078,-70.46162 c -6.89245,-1.94498 -11.66191,-6.25559 -15.84645,-14.32193 -9.01038,-17.36888 -6.83672,-39.718 5.12508,-52.69502 5.41261,-5.87199 11.24664,-8.12637 21.00789,-8.11783 6.05535,0.005 8.61822,0.52922 13.30531,2.72 7.84448,3.66656 17.2667,12.96049 25.70053,25.35061 l 6.94274,10.19955 -5.53768,8.86164 c -11.30732,18.09447 -24.59612,27.95784 -38.93211,28.89666 -4.23383,0.27726 -8.86147,-0.0743 -11.76531,-0.89368 z m 162.31943,-0.18022 c -12.05682,-3.37692 -23.21793,-14.11826 -34.82959,-33.51966 l -2.12978,-3.55853 6.16185,-9.41644 c 7.43742,-11.36574 16.43393,-20.47352 23.99432,-24.29109 11.96936,-6.04386 25.55395,-5.76664 34.04119,0.69468 5.61511,4.27476 11.07343,14.84832 12.76198,24.72177 3.12588,18.27794 -4.99014,38.43636 -17.75661,44.10353 -5.86131,2.60191 -15.51205,3.15107 -22.24336,1.26574 z M 125.5,109.5 l 0,-52 -34,0 -34,0 -0.260118,51 c -0.143065,28.05 -0.04239,51.5685 0.223732,52.26333 0.37938,0.99057 7.776618,1.20648 34.260118,1 L 125.5,161.5 l 0,-52 z m -53.148395,17.40755 c -5.991156,-1.73561 -11.330203,-10.29504 -11.346028,-18.18967 -0.0031,-1.53016 0.693295,-4.45516 1.547471,-6.5 4.766406,-11.41042 17.307616,-14.441637 26.173992,-6.326265 l 3.227039,2.953701 3.115389,-2.910209 c 4.457118,-4.163571 9.829672,-5.581507 15.130622,-3.993305 12.78688,3.831044 16.95397,21.104138 7.39692,30.661188 -6.59145,6.59145 -15.78816,6.74966 -22.29951,0.38361 l -3.131536,-3.06165 -2.592553,2.59255 c -4.840289,4.84029 -10.599717,6.30844 -17.221806,4.39005 z M 83.312909,113.19528 C 84.790809,111.65269 86,109.98981 86,109.5 86,107.77056 80.599468,103 78.641649,103 75.528524,103 73,105.95068 73,109.58356 c 0,6.4889 5.65799,8.47041 10.312909,3.61172 z m 25.858351,1.14973 c 2.26024,-2.04548 2.4071,-7.6238 0.25731,-9.77358 -2.37096,-2.37097 -5.74436,-1.89503 -8.74148,1.23329 C 99.209191,107.34731 98,109.01019 98,109.5 c 0,1.72944 5.40053,6.5 7.35835,6.5 1.09129,0 2.8071,-0.74474 3.81291,-1.65499 z"
     id="path2987"
     inkscape:connector-curvature="0" />
</svg>
