<?xml version="1.0" encoding="UTF-8" standalone="no"?>
<!-- Created with Inkscape (http://www.inkscape.org/) -->

<svg
   xmlns:dc="http://purl.org/dc/elements/1.1/"
   xmlns:cc="http://creativecommons.org/ns#"
   xmlns:rdf="http://www.w3.org/1999/02/22-rdf-syntax-ns#"
   xmlns:svg="http://www.w3.org/2000/svg"
   xmlns="http://www.w3.org/2000/svg"
   xmlns:sodipodi="http://sodipodi.sourceforge.net/DTD/sodipodi-0.dtd"
   xmlns:inkscape="http://www.inkscape.org/namespaces/inkscape"
   id="svg2"
   version="1.1"
   inkscape:version="0.48.4 r9939"
   width="690"
   height="1050"
   sodipodi:docname="question.bmp">
  <metadata
     id="metadata8">
    <rdf:RDF>
      <cc:Work
         rdf:about="">
        <dc:format>image/svg+xml</dc:format>
        <dc:type
           rdf:resource="http://purl.org/dc/dcmitype/StillImage" />
        <dc:title></dc:title>
      </cc:Work>
    </rdf:RDF>
  </metadata>
  <defs
     id="defs6" />
  <sodipodi:namedview
     pagecolor="#ffffff"
     bordercolor="#666666"
     borderopacity="1"
     objecttolerance="10"
     gridtolerance="10"
     guidetolerance="10"
     inkscape:pageopacity="0"
     inkscape:pageshadow="2"
     inkscape:window-width="640"
     inkscape:window-height="480"
     id="namedview4"
     showgrid="false"
     inkscape:zoom="0.2247619"
     inkscape:cx="345"
     inkscape:cy="525"
     inkscape:window-x="0"
     inkscape:window-y="27"
     inkscape:window-maximized="0"
     inkscape:current-layer="svg2" />
  <path
     style="fill:#000000"
     d="m 50.5,1010.4972 c -5.059981,-1.7899 -11.013834,-8.0834 -12.412468,-13.12062 -1.552883,-5.59271 -1.520109,-940.278213 0.03317,-945.87328 1.448483,-5.217596 8.165006,-11.934119 13.382602,-13.382602 5.69039,-1.579738 580.303006,-1.579738 585.993396,0 5.2176,1.448483 11.93412,8.165006 13.3826,13.382602 1.58311,5.702526 1.58311,940.29087 0,945.9934 -1.44848,5.2176 -8.165,11.9341 -13.3826,13.3826 -2.88665,0.8014 -84.40271,1.0989 -293.4967,1.0712 -246.979563,-0.033 -290.087498,-0.2461 -293.499996,-1.4533 z m 581,-70.9972 0,-52 -34,0 -34,0 -0.26012,51 c -0.14306,28.05 -0.0424,51.5685 0.22373,52.26333 0.37938,0.99057 7.77662,1.20648 34.26012,1 L 631.5,991.5 l 0,-52 z m -44.2303,40.50906 c -2.32666,-0.49392 -6.23538,-1.78499 -8.68604,-2.86903 l -4.45574,-1.97099 2.02419,-5.33452 c 1.11331,-2.93399 2.12884,-5.44132 2.25672,-5.57186 0.12789,-0.13054 2.77697,0.65696 5.88686,1.75 8.00138,2.81226 14.13647,2.64609 17.24976,-0.46721 4.29192,-4.29192 2.38786,-10.87707 -4.77394,-16.51054 -4.05912,-3.19291 -8.7065,-11.28144 -9.40345,-16.36624 L 586.72815,928 l 7.01093,0 c 6.84613,0 7.02405,0.0646 7.56976,2.75 0.32214,1.58525 3.82894,6.13836 8.27964,10.75 7.76827,8.04919 11.35367,13.87579 11.38398,18.5 0.0493,7.52089 -4.34751,14.6202 -11.22895,18.13085 -4.59406,2.34372 -15.84987,3.2844 -22.47381,1.87821 z M 590.5,918.10121 c -6.5129,-2.81732 -8.2388,-11.81696 -3.22727,-16.82848 2.20037,-2.20037 3.69225,-2.77273 7.22727,-2.77273 12.59549,0 13.92344,18.37717 1.44625,20.0142 -1.89544,0.24869 -4.34625,0.0628 -5.44625,-0.41299 z M 344.39052,784.028 c 11.81546,-3.02189 20.86113,-8.2645 30.21755,-17.51324 C 386.88628,754.37784 392,741.35174 392,722.21256 c 0,-36.25021 -27.24089,-63.27633 -63.69741,-63.1952 -18.08844,0.0403 -33.77075,6.41961 -46.26325,18.81929 -13.31281,13.21388 -18.72075,27.7982 -17.80599,48.0198 0.79739,17.62712 6.34996,29.99418 19.04202,42.41172 15.45816,15.12381 39.43098,21.30571 61.11515,15.75983 z M 365.01736,601.75 c 0.041,-5.3187 3.22081,-16.78671 6.50515,-23.46125 C 378.051,565.02136 386.17434,555.51144 417.8958,524 c 31.87288,-31.66186 40.37833,-41.30474 49.83552,-56.5 11.96359,-19.22239 16.14611,-32.05605 16.94694,-52 1.67171,-41.63284 -16.36135,-78.62485 -48.62078,-99.73794 C 407.85293,297.3028 376.63466,290.00398 331.5,291.31655 c -37.86378,1.10113 -73.81477,9.00911 -103.84485,22.8423 C 219.04274,318.12611 205,325.78619 205,326.51686 c 0,0.26257 11.86691,33.43443 25.45425,71.15286 0.2738,0.76006 4.90842,-0.86659 13.23356,-4.64469 31.39691,-14.2485 52.51835,-20.13948 77.40569,-21.58921 28.05142,-1.63405 51.53451,8.58853 59.45076,25.87989 3.57051,7.79901 5.05017,18.88127 3.64952,27.33391 -2.8487,17.19136 -13.58603,30.37536 -50.96798,62.58183 -29.60035,25.50222 -49.07957,57.57048 -53.73633,88.46507 -1.51164,10.02877 -1.96938,23.88927 -0.88248,26.72169 0.54044,1.40837 5.30967,1.58179 43.5,1.58179 L 365,604 l 0.0174,-2.25 z M 125.5,109.5 l 0,-52 -34,0 -34,0 -0.260118,51 c -0.143065,28.05 -0.04239,51.5685 0.223732,52.26333 0.37938,0.99057 7.776618,1.20648 34.260118,1 L 125.5,161.5 l 0,-52 z m -41,40.60121 C 77.987104,147.28389 76.261203,138.28425 81.272727,133.27273 83.473098,131.07236 84.964978,130.5 88.5,130.5 c 12.59549,0 13.92344,18.37717 1.446249,20.0142 C 88.050812,150.76289 85.6,150.57704 84.5,150.10121 z m -3.131936,-33.76988 c 0.69695,-5.0848 5.344325,-13.17333 9.403443,-16.366238 7.161801,-5.633473 9.065868,-12.218626 4.773948,-16.510547 -3.113296,-3.113295 -9.248383,-3.279462 -17.249763,-0.467204 -3.109888,1.093038 -5.758976,1.880538 -5.88686,1.75 -0.127885,-0.130537 -1.143408,-2.637876 -2.256717,-5.571863 l -2.024199,-5.334522 4.386163,-1.940209 c 10.045517,-4.443609 23.711718,-4.856849 31.372431,-0.948643 6.73973,3.43835 11.13485,10.597559 11.08595,18.057896 -0.0303,4.624212 -3.61571,10.450815 -11.38398,18.5 -4.450699,4.61164 -7.957499,9.16475 -8.279643,10.75 -0.545702,2.68536 -0.723623,2.75 -7.569761,2.75 l -7.010924,0 0.639912,-4.66867 z"
     id="path2987"
     inkscape:connector-curvature="0" />
</svg>
